<?xml version="1.0" encoding="utf-8"?>
<!-- Generator: Adobe Illustrator 19.0.0, SVG Export Plug-In . SVG Version: 6.00 Build 0)  -->
<svg version="1.1" id="レイヤー_1" xmlns="http://www.w3.org/2000/svg" xmlns:xlink="http://www.w3.org/1999/xlink" x="0px"
	 y="0px" viewBox="-255 25 448 512" style="enable-background:new -255 25 448 512;" xml:space="preserve">
<style type="text/css">
	.st0{fill:#06C755;}
</style>
<path class="st0" d="M17.1,229.2v71.1c0,1.8-1.4,3.2-3.2,3.2H2.5c-1.1,0-2.1-0.6-2.6-1.3l-32.6-44v42.2c0,1.8-1.4,3.2-3.2,3.2h-11.4
	c-1.8,0-3.2-1.4-3.2-3.2v-71.1c0-1.8,1.4-3.2,3.2-3.2H-36c1,0,2.1,0.5,2.6,1.4l32.6,44v-42.2c0-1.8,1.4-3.2,3.2-3.2h11.4
	C15.6,226,17.1,227.5,17.1,229.2L17.1,229.2z M-64.9,226h-11.4c-1.8,0-3.2,1.4-3.2,3.2v71.1c0,1.8,1.4,3.2,3.2,3.2h11.4
	c1.8,0,3.2-1.4,3.2-3.2v-71.1C-61.7,227.5-63.1,226-64.9,226L-64.9,226z M-92.4,285.6h-31.1v-56.4c0-1.8-1.4-3.2-3.2-3.2h-11.4
	c-1.8,0-3.2,1.4-3.2,3.2v71.1c0,0.9,0.3,1.6,0.9,2.2c0.6,0.5,1.3,0.9,2.2,0.9h45.7c1.8,0,3.2-1.4,3.2-3.2v-11.4
	C-89.3,287.1-90.7,285.6-92.4,285.6L-92.4,285.6z M77.1,226H31.4c-1.7,0-3.2,1.4-3.2,3.2v71.1c0,1.7,1.4,3.2,3.2,3.2h45.7
	c1.8,0,3.2-1.4,3.2-3.2v-11.4c0-1.8-1.4-3.2-3.2-3.2H46v-12h31.1c1.8,0,3.2-1.4,3.2-3.2V259c0-1.8-1.4-3.2-3.2-3.2H46v-12h31.1
	c1.8,0,3.2-1.4,3.2-3.2v-11.4C80.2,227.5,78.8,226,77.1,226L77.1,226z M193,138.7V424c-0.1,44.8-36.8,81.1-81.7,81H-174
	c-44.8-0.1-81.1-36.9-81-81.7V138c0.1-44.8,36.9-81.1,81.7-81H112C156.8,57.1,193.1,93.8,193,138.7z M131.4,261.3
	c0-73-73.2-132.4-163.1-132.4s-163.1,59.4-163.1,132.4c0,65.4,58,120.2,136.4,130.6c19.1,4.1,16.9,11.1,12.6,36.8
	c-0.7,4.1-3.3,16.1,14.1,8.8c17.4-7.3,93.9-55.3,128.2-94.7C120.1,316.8,131.4,290.5,131.4,261.3z"/>
</svg>
