<?xml version="1.0" encoding="utf-8"?>
<!-- Generator: Adobe Illustrator 19.0.0, SVG Export Plug-In . SVG Version: 6.00 Build 0)  -->
<svg version="1.1" id="レイヤー_1" xmlns="http://www.w3.org/2000/svg" xmlns:xlink="http://www.w3.org/1999/xlink" x="0px"
	 y="0px" viewBox="0 0 438 66" style="enable-background:new 0 0 438 66;" xml:space="preserve">
<style type="text/css">
	.st0{fill:none;stroke:#8D7834;stroke-width:10;stroke-linejoin:bevel;}
	.st1{fill:none;stroke:#FFFFFF;stroke-width:4;}
	.st2{fill:#42140C;}
</style>
<g id="XMLID_2_">
	<g id="XMLID_399_">
		<path id="XMLID_427_" d="M37.7,12.3v8.9h-3.2c-0.5-1.9-1.2-3.3-2-4.4c-0.8-1.1-1.7-1.9-2.8-2.4c-1-0.5-2.3-0.7-3.8-0.7
			c-2.2,0-4.2,0.7-5.9,2.2c-1.7,1.5-3.1,3.7-4.1,6.6c-1,2.9-1.5,6.5-1.5,10.7c0,4.2,0.4,7.8,1.2,10.7c0.8,3,2,5.2,3.6,6.7
			c1.6,1.5,3.5,2.3,5.8,2.3c1.8,0,3.2-0.3,4.3-0.8c1.1-0.5,2.1-1.3,2.8-2.4c0.8-1.1,1.5-2.7,2.2-4.8h3.2v9.2c-2,0.5-4.1,0.9-6.2,1.2
			c-2.1,0.3-4.4,0.4-7,0.4c-5.4,0-9.6-1.8-12.3-5.5C9.4,46.6,8,41.1,8,33.8c0-4.6,0.7-8.6,2.2-12c1.4-3.4,3.6-6.1,6.4-8
			c2.8-1.9,6.2-2.8,10.1-2.8c1.9,0,3.7,0.1,5.4,0.3C33.7,11.4,35.5,11.8,37.7,12.3z"/>
		<path id="XMLID_424_" d="M62.9,50.7l-0.5-0.1c-1.9,1.9-3.6,3.3-5.3,4c-1.6,0.8-3.4,1.2-5.2,1.2c-1.6,0-3.1-0.3-4.3-0.9
			c-1.2-0.6-2.2-1.5-2.9-2.7c-0.7-1.1-1-2.5-1-4c0-3.1,1.5-5.5,4.6-7.2c3.1-1.7,7.7-2.7,13.9-3v-2.1c0-2.2-0.2-4-0.6-5.3
			c-0.4-1.3-1.1-2.2-2-2.8c-0.9-0.6-2.2-0.9-3.7-0.9c-1.7,0-3,0.4-4,1.3c-1,0.9-1.8,2.2-2.3,4h-4.2V28c2.1-1.1,3.8-1.9,5.1-2.4
			c1.4-0.5,2.7-0.9,4.1-1.2c1.4-0.3,2.8-0.4,4.2-0.4c2.1,0,3.8,0.3,5.1,1c1.3,0.7,2.2,1.7,2.9,3.1c0.6,1.4,1,3.5,1,6.3v11.2
			c0,1.6,0,2.7,0,3.4c0,0.7,0.1,1.3,0.2,1.8c0.1,0.6,0.3,1,0.5,1.3c0.2,0.3,0.5,0.6,0.9,0.9c0.4,0.2,1.1,0.5,2,0.7v1.6h-8.8
			L62.9,50.7z M62.3,40.6c-4.3,0-7.6,0.6-9.8,1.7c-2.2,1.1-3.2,2.8-3.2,5c0,1.2,0.2,2.2,0.7,2.9c0.5,0.7,1.1,1.2,1.9,1.5
			c0.7,0.3,1.6,0.4,2.7,0.4c1.5,0,2.8-0.4,4-1.1c1.2-0.7,2.1-1.6,2.8-2.7c0.7-1.1,1-2.2,1-3.2V40.6z"/>
		<path id="XMLID_422_" d="M92.9,27.8h-7.7v19.4c0,1.4,0.1,2.5,0.2,3.2c0.1,0.7,0.3,1.3,0.6,1.7c0.3,0.4,0.6,0.7,1.1,0.9
			c0.4,0.2,1.1,0.4,2.1,0.7v1.6H76.1v-1.6c0.9-0.3,1.6-0.5,2-0.7c0.4-0.2,0.7-0.5,0.9-0.9c0.2-0.4,0.4-0.9,0.5-1.6
			c0.1-0.7,0.2-1.8,0.2-3.2V27.8h-3.9v-1.6c0.8-0.1,1.4-0.2,1.6-0.3c0.3-0.1,0.5-0.2,0.8-0.3c0.2-0.1,0.5-0.4,0.6-0.6
			c0.2-0.3,0.3-0.7,0.5-1.2c0.1-0.5,0.3-1.3,0.3-2.3c0.2-2.3,0.6-4.2,1.3-5.7c0.7-1.5,1.6-2.7,2.9-3.7s2.6-1.8,4-2.2
			c1.4-0.4,3.1-0.6,5-0.6c1.7,0,3.1,0.1,4.3,0.4v5.8H94c-0.4-1.3-0.9-2.2-1.4-2.7c-0.5-0.5-1.3-0.8-2.3-0.8c-0.7,0-1.3,0.1-1.8,0.3
			c-0.5,0.2-0.9,0.5-1.3,0.9c-0.4,0.4-0.8,1-1,1.6c-0.3,0.7-0.5,1.5-0.6,2.6c-0.1,1-0.2,2.3-0.2,4v3.4h7.7V27.8z"/>
		<path id="XMLID_419_" d="M122,49.8c-1.4,1.4-2.6,2.6-3.8,3.4c-1.1,0.8-2.4,1.5-3.8,1.9c-1.4,0.5-2.9,0.7-4.5,0.7
			c-4.4,0-7.7-1.3-10-4c-2.2-2.6-3.4-6.5-3.4-11.7c0-3.2,0.6-6,1.7-8.4c1.1-2.4,2.8-4.3,4.9-5.7c2.1-1.3,4.6-2,7.3-2
			c2.2,0,4,0.3,5.5,1c1.5,0.7,2.7,1.6,3.6,2.8c0.9,1.2,1.6,2.7,2.1,4.5c0.5,1.8,0.8,4.2,0.9,7.1h-20.2V40c0,2.5,0.3,4.7,0.9,6.4
			c0.6,1.7,1.5,3.1,2.8,4c1.3,1,3,1.5,5.1,1.5c1.8,0,3.3-0.3,4.7-1c1.4-0.7,2.8-1.7,4.2-3.2L122,49.8z M116.6,36.7
			c-0.1-2.3-0.4-4.2-0.9-5.7c-0.4-1.5-1.1-2.6-2-3.4c-0.9-0.8-2.1-1.2-3.5-1.2c-2.2,0-4,0.9-5.3,2.6c-1.3,1.8-2.1,4.3-2.3,7.6H116.6
			z"/>
		<path id="XMLID_416_" d="M164.6,20.3c0-2.1,0-3.5,0-4.3c0-0.8-0.1-1.5-0.3-2.1c-0.1-0.6-0.3-1-0.6-1.3c-0.2-0.3-0.6-0.6-1-0.8
			s-1.2-0.4-2.3-0.6V9.6l7.8-0.3h1.9v37.2c0,1.7,0,2.9,0.1,3.6c0.1,0.7,0.2,1.3,0.4,1.7c0.2,0.4,0.6,0.8,1,1
			c0.5,0.3,1.3,0.5,2.4,0.8v1.7l-7.6,0.3h-1.9l0.4-5.3l-0.5-0.1c-1.3,1.4-2.5,2.5-3.5,3.2c-1,0.7-2.1,1.3-3.2,1.7s-2.3,0.6-3.6,0.6
			c-3.5,0-6.2-1.3-8.1-4c-1.9-2.7-2.9-6.5-2.9-11.5c0-3.5,0.6-6.5,1.9-8.9c1.2-2.5,2.9-4.3,5-5.5c2.1-1.2,4.5-1.8,7.1-1.8
			c1.4,0,2.7,0.1,3.9,0.3s2.3,0.6,3.6,1.1V20.3z M164.6,36.2c0-1.7-0.1-3-0.2-4c-0.1-1-0.4-1.9-0.8-2.5c-0.4-0.7-0.8-1.3-1.4-1.7
			c-0.6-0.5-1.3-0.8-2-1c-0.7-0.2-1.6-0.3-2.6-0.3c-2.7,0-4.8,1.1-6.3,3.3c-1.4,2.2-2.2,5.3-2.2,9.5s0.6,7.2,1.8,9.4
			c1.2,2.1,3,3.2,5.4,3.2c0.9,0,1.7-0.1,2.3-0.2c0.6-0.2,1.2-0.4,1.8-0.8c0.6-0.4,1.2-0.8,1.8-1.5c0.6-0.6,1.1-1.2,1.4-1.7
			c0.3-0.5,0.5-1.1,0.7-1.8c0.1-0.7,0.2-1.5,0.2-2.6V36.2z"/>
		<path id="XMLID_413_" d="M205.1,49.8c-1.4,1.4-2.6,2.6-3.8,3.4c-1.1,0.8-2.4,1.5-3.8,1.9c-1.4,0.5-2.9,0.7-4.5,0.7
			c-4.4,0-7.7-1.3-10-4c-2.2-2.6-3.4-6.5-3.4-11.7c0-3.2,0.6-6,1.7-8.4c1.1-2.4,2.8-4.3,4.9-5.7c2.1-1.3,4.6-2,7.3-2
			c2.2,0,4,0.3,5.5,1c1.5,0.7,2.7,1.6,3.6,2.8c0.9,1.2,1.6,2.7,2.1,4.5c0.5,1.8,0.8,4.2,0.9,7.1h-20.2V40c0,2.5,0.3,4.7,0.9,6.4
			c0.6,1.7,1.5,3.1,2.8,4c1.3,1,3,1.5,5.1,1.5c1.8,0,3.3-0.3,4.7-1c1.4-0.7,2.8-1.7,4.2-3.2L205.1,49.8z M199.7,36.7
			c-0.1-2.3-0.4-4.2-0.9-5.7c-0.4-1.5-1.1-2.6-2-3.4c-0.9-0.8-2.1-1.2-3.5-1.2c-2.2,0-4,0.9-5.3,2.6c-1.3,1.8-2.1,4.3-2.3,7.6H199.7
			z"/>
		<path id="XMLID_411_" d="M256,11.4v9.7h-3.1c-0.5-1.5-0.9-2.6-1.4-3.5c-0.4-0.9-0.9-1.6-1.4-2.1c-0.5-0.5-1-0.8-1.7-1
			s-1.5-0.3-2.5-0.3h-9.4v17.5h6.6c0.9,0,1.7-0.2,2.2-0.5c0.5-0.3,1-0.8,1.3-1.6c0.4-0.7,0.7-1.9,1-3.4h3v13.6h-3
			c-0.3-1.5-0.7-2.6-1-3.3c-0.4-0.7-0.8-1.3-1.3-1.6c-0.5-0.3-1.2-0.5-2.2-0.5h-6.6v12.6c0,1.3,0.1,2.3,0.2,3.1
			c0.1,0.8,0.4,1.4,0.7,1.8c0.3,0.4,0.8,0.8,1.4,1c0.6,0.2,1.3,0.4,2.2,0.6v1.6h-14.3v-1.6c1.3-0.3,2.2-0.7,2.7-1.1
			c0.4-0.4,0.7-1,0.9-1.8c0.1-0.8,0.2-1.9,0.2-3.5V19.4c0-1.5-0.1-2.6-0.2-3.2c-0.1-0.7-0.3-1.2-0.5-1.6c-0.2-0.4-0.6-0.7-1-0.9
			c-0.4-0.2-1.1-0.5-2.1-0.8v-1.6H256z"/>
		<path id="XMLID_409_" d="M292.1,11.4v9.7h-3.1c-0.3-1-0.7-2-1-2.8c-0.3-0.8-0.7-1.5-1.1-2c-0.4-0.5-0.8-1-1.2-1.3
			c-0.4-0.3-1-0.5-1.6-0.7c-0.6-0.1-1.3-0.2-2.2-0.2h-10.1v16.8h6.9c0.9,0,1.7-0.1,2.2-0.4c0.5-0.3,1-0.7,1.3-1.4
			c0.4-0.6,0.7-1.6,1-3h3v12.3h-3c-0.3-1.3-0.6-2.3-1-2.9c-0.4-0.7-0.8-1.1-1.3-1.4c-0.5-0.3-1.3-0.4-2.3-0.4h-6.9v18.5h10
			c1,0,1.9-0.1,2.6-0.3c0.7-0.2,1.2-0.5,1.7-0.9c0.5-0.4,0.9-1,1.3-1.7c0.4-0.7,0.7-1.4,0.9-2.2c0.2-0.8,0.6-1.9,1-3.3h3.2
			l-0.6,11.3h-29.7v-1.6c1.3-0.3,2.2-0.7,2.7-1.1c0.4-0.4,0.7-1,0.9-1.8c0.1-0.8,0.2-1.9,0.2-3.5V19.4c0-1.5-0.1-2.6-0.2-3.2
			c-0.1-0.7-0.3-1.2-0.5-1.6c-0.2-0.4-0.6-0.7-1-0.9c-0.4-0.2-1.1-0.5-2.1-0.8v-1.6H292.1z"/>
		<path id="XMLID_407_" d="M309.7,52.3h8.4c0.9,0,1.7-0.1,2.3-0.2c0.6-0.1,1.2-0.3,1.6-0.5c0.4-0.2,0.8-0.5,1.2-0.9
			c0.4-0.4,0.7-0.9,1-1.6c0.3-0.6,0.6-1.5,0.9-2.4c0.3-1,0.6-2.4,1.1-4.4h3.2l-0.6,12.9h-28.9v-1.6c1.3-0.3,2.2-0.7,2.7-1.1
			s0.7-1,0.9-1.8c0.1-0.8,0.2-1.9,0.2-3.5V19.4c0-1.5-0.1-2.6-0.2-3.2c-0.1-0.7-0.3-1.2-0.5-1.6c-0.2-0.4-0.6-0.7-1-0.9
			c-0.4-0.2-1.1-0.5-2.1-0.8v-1.6h13.5V13c-0.9,0.3-1.6,0.5-2,0.7c-0.4,0.2-0.7,0.5-1,0.8c-0.3,0.3-0.4,0.9-0.6,1.6
			c-0.1,0.7-0.2,1.8-0.2,3.4V52.3z"/>
		<path id="XMLID_405_" d="M345,47.2c0,1.4,0,2.5,0.1,3.1c0.1,0.7,0.3,1.2,0.5,1.6c0.2,0.4,0.6,0.7,1,1c0.4,0.3,1.2,0.5,2.1,0.8v1.6
			h-13.6v-1.6c1.3-0.3,2.2-0.7,2.7-1.1c0.4-0.4,0.7-1,0.9-1.8c0.1-0.8,0.2-1.9,0.2-3.5V19.4c0-1.5-0.1-2.6-0.2-3.2
			c-0.1-0.7-0.3-1.2-0.5-1.6c-0.2-0.4-0.6-0.7-1-0.9c-0.4-0.2-1.1-0.5-2.1-0.8v-1.6h13.6V13c-0.9,0.2-1.6,0.5-2,0.7
			c-0.4,0.2-0.7,0.5-1,0.9c-0.2,0.4-0.4,0.9-0.5,1.6c-0.1,0.7-0.2,1.8-0.2,3.3V47.2z"/>
		<path id="XMLID_403_" d="M386.1,12.3v8.9h-3.2c-0.5-1.9-1.2-3.3-2-4.4c-0.8-1.1-1.7-1.9-2.8-2.4c-1-0.5-2.3-0.7-3.8-0.7
			c-2.2,0-4.2,0.7-5.9,2.2c-1.7,1.5-3.1,3.7-4.1,6.6c-1,2.9-1.5,6.5-1.5,10.7c0,4.2,0.4,7.8,1.2,10.7c0.8,3,2,5.2,3.6,6.7
			c1.6,1.5,3.5,2.3,5.8,2.3c1.8,0,3.2-0.3,4.3-0.8c1.1-0.5,2.1-1.3,2.8-2.4c0.8-1.1,1.5-2.7,2.2-4.8h3.2v9.2c-2,0.5-4.1,0.9-6.2,1.2
			c-2.1,0.3-4.4,0.4-7,0.4c-5.4,0-9.6-1.8-12.3-5.5c-2.8-3.7-4.2-9.2-4.2-16.5c0-4.6,0.7-8.6,2.2-12c1.4-3.4,3.6-6.1,6.4-8
			c2.8-1.9,6.2-2.8,10.1-2.8c1.9,0,3.7,0.1,5.4,0.3C382.1,11.4,384,11.8,386.1,12.3z"/>
		<path id="XMLID_400_" d="M415.2,55.2v-1.6c1.1-0.2,1.9-0.4,2.4-0.7s0.9-0.6,1.2-1.1c0.3-0.5,0.4-1.1,0.4-1.8
			c0-0.7-0.1-1.5-0.3-2.4c-0.2-0.8-0.4-1.8-0.7-2.8l-1.2-4.1h-15l-1.1,3.1c-0.6,1.6-0.9,2.8-1.1,3.6c-0.2,0.8-0.3,1.6-0.3,2.2
			c0,1.3,0.3,2.2,1,2.8c0.7,0.6,1.7,1,3,1.2v1.6h-13.7v-1.6c1.2-0.2,2.2-0.9,3.1-2.1c0.9-1.2,1.8-2.9,2.6-5.1l13.4-35.6h5.1
			l10.9,35.8c0.5,1.7,1,2.9,1.4,3.8c0.4,0.9,0.9,1.6,1.4,2.1c0.6,0.5,1.3,0.9,2.3,1.1v1.6H415.2z M402.9,37.9h13.4l-6.1-20.7
			L402.9,37.9z"/>
	</g>
	<g id="XMLID_369_">
		<path id="XMLID_397_" class="st0" d="M37.7,12.3v8.9h-3.2c-0.5-1.9-1.2-3.3-2-4.4c-0.8-1.1-1.7-1.9-2.8-2.4
			c-1-0.5-2.3-0.7-3.8-0.7c-2.2,0-4.2,0.7-5.9,2.2c-1.7,1.5-3.1,3.7-4.1,6.6c-1,2.9-1.5,6.5-1.5,10.7c0,4.2,0.4,7.8,1.2,10.7
			c0.8,3,2,5.2,3.6,6.7c1.6,1.5,3.5,2.3,5.8,2.3c1.8,0,3.2-0.3,4.3-0.8c1.1-0.5,2.1-1.3,2.8-2.4c0.8-1.1,1.5-2.7,2.2-4.8h3.2v9.2
			c-2,0.5-4.1,0.9-6.2,1.2c-2.1,0.3-4.4,0.4-7,0.4c-5.4,0-9.6-1.8-12.3-5.5C9.4,46.6,8,41.1,8,33.8c0-4.6,0.7-8.6,2.2-12
			c1.4-3.4,3.6-6.1,6.4-8c2.8-1.9,6.2-2.8,10.1-2.8c1.9,0,3.7,0.1,5.4,0.3C33.7,11.4,35.5,11.8,37.7,12.3z"/>
		<path id="XMLID_394_" class="st0" d="M62.9,50.7l-0.5-0.1c-1.9,1.9-3.6,3.3-5.3,4c-1.6,0.8-3.4,1.2-5.2,1.2
			c-1.6,0-3.1-0.3-4.3-0.9c-1.2-0.6-2.2-1.5-2.9-2.7c-0.7-1.1-1-2.5-1-4c0-3.1,1.5-5.5,4.6-7.2c3.1-1.7,7.7-2.7,13.9-3v-2.1
			c0-2.2-0.2-4-0.6-5.3c-0.4-1.3-1.1-2.2-2-2.8c-0.9-0.6-2.2-0.9-3.7-0.9c-1.7,0-3,0.4-4,1.3c-1,0.9-1.8,2.2-2.3,4h-4.2V28
			c2.1-1.1,3.8-1.9,5.1-2.4c1.4-0.5,2.7-0.9,4.1-1.2c1.4-0.3,2.8-0.4,4.2-0.4c2.1,0,3.8,0.3,5.1,1c1.3,0.7,2.2,1.7,2.9,3.1
			c0.6,1.4,1,3.5,1,6.3v11.2c0,1.6,0,2.7,0,3.4c0,0.7,0.1,1.3,0.2,1.8c0.1,0.6,0.3,1,0.5,1.3c0.2,0.3,0.5,0.6,0.9,0.9
			c0.4,0.2,1.1,0.5,2,0.7v1.6h-8.8L62.9,50.7z M62.3,40.6c-4.3,0-7.6,0.6-9.8,1.7c-2.2,1.1-3.2,2.8-3.2,5c0,1.2,0.2,2.2,0.7,2.9
			c0.5,0.7,1.1,1.2,1.9,1.5c0.7,0.3,1.6,0.4,2.7,0.4c1.5,0,2.8-0.4,4-1.1c1.2-0.7,2.1-1.6,2.8-2.7c0.7-1.1,1-2.2,1-3.2V40.6z"/>
		<path id="XMLID_392_" class="st0" d="M92.9,27.8h-7.7v19.4c0,1.4,0.1,2.5,0.2,3.2c0.1,0.7,0.3,1.3,0.6,1.7
			c0.3,0.4,0.6,0.7,1.1,0.9c0.4,0.2,1.1,0.4,2.1,0.7v1.6H76.1v-1.6c0.9-0.3,1.6-0.5,2-0.7c0.4-0.2,0.7-0.5,0.9-0.9
			c0.2-0.4,0.4-0.9,0.5-1.6c0.1-0.7,0.2-1.8,0.2-3.2V27.8h-3.9v-1.6c0.8-0.1,1.4-0.2,1.6-0.3c0.3-0.1,0.5-0.2,0.8-0.3
			c0.2-0.1,0.5-0.4,0.6-0.6c0.2-0.3,0.3-0.7,0.5-1.2c0.1-0.5,0.3-1.3,0.3-2.3c0.2-2.3,0.6-4.2,1.3-5.7c0.7-1.5,1.6-2.7,2.9-3.7
			s2.6-1.8,4-2.2c1.4-0.4,3.1-0.6,5-0.6c1.7,0,3.1,0.1,4.3,0.4v5.8H94c-0.4-1.3-0.9-2.2-1.4-2.7c-0.5-0.5-1.3-0.8-2.3-0.8
			c-0.7,0-1.3,0.1-1.8,0.3c-0.5,0.2-0.9,0.5-1.3,0.9c-0.4,0.4-0.8,1-1,1.6c-0.3,0.7-0.5,1.5-0.6,2.6c-0.1,1-0.2,2.3-0.2,4v3.4h7.7
			V27.8z"/>
		<path id="XMLID_389_" class="st0" d="M122,49.8c-1.4,1.4-2.6,2.6-3.8,3.4c-1.1,0.8-2.4,1.5-3.8,1.9c-1.4,0.5-2.9,0.7-4.5,0.7
			c-4.4,0-7.7-1.3-10-4c-2.2-2.6-3.4-6.5-3.4-11.7c0-3.2,0.6-6,1.7-8.4c1.1-2.4,2.8-4.3,4.9-5.7c2.1-1.3,4.6-2,7.3-2
			c2.2,0,4,0.3,5.5,1c1.5,0.7,2.7,1.6,3.6,2.8c0.9,1.2,1.6,2.7,2.1,4.5c0.5,1.8,0.8,4.2,0.9,7.1h-20.2V40c0,2.5,0.3,4.7,0.9,6.4
			c0.6,1.7,1.5,3.1,2.8,4c1.3,1,3,1.5,5.1,1.5c1.8,0,3.3-0.3,4.7-1c1.4-0.7,2.8-1.7,4.2-3.2L122,49.8z M116.6,36.7
			c-0.1-2.3-0.4-4.2-0.9-5.7c-0.4-1.5-1.1-2.6-2-3.4c-0.9-0.8-2.1-1.2-3.5-1.2c-2.2,0-4,0.9-5.3,2.6c-1.3,1.8-2.1,4.3-2.3,7.6H116.6
			z"/>
		<path id="XMLID_386_" class="st0" d="M164.6,20.3c0-2.1,0-3.5,0-4.3c0-0.8-0.1-1.5-0.3-2.1c-0.1-0.6-0.3-1-0.6-1.3
			c-0.2-0.3-0.6-0.6-1-0.8s-1.2-0.4-2.3-0.6V9.6l7.8-0.3h1.9v37.2c0,1.7,0,2.9,0.1,3.6c0.1,0.7,0.2,1.3,0.4,1.7c0.2,0.4,0.6,0.8,1,1
			c0.5,0.3,1.3,0.5,2.4,0.8v1.7l-7.6,0.3h-1.9l0.4-5.3l-0.5-0.1c-1.3,1.4-2.5,2.5-3.5,3.2c-1,0.7-2.1,1.3-3.2,1.7s-2.3,0.6-3.6,0.6
			c-3.5,0-6.2-1.3-8.1-4c-1.9-2.7-2.9-6.5-2.9-11.5c0-3.5,0.6-6.5,1.9-8.9c1.2-2.5,2.9-4.3,5-5.5c2.1-1.2,4.5-1.8,7.1-1.8
			c1.4,0,2.7,0.1,3.9,0.3s2.3,0.6,3.6,1.1V20.3z M164.6,36.2c0-1.7-0.1-3-0.2-4c-0.1-1-0.4-1.9-0.8-2.5c-0.4-0.7-0.8-1.3-1.4-1.7
			c-0.6-0.5-1.3-0.8-2-1c-0.7-0.2-1.6-0.3-2.6-0.3c-2.7,0-4.8,1.1-6.3,3.3c-1.4,2.2-2.2,5.3-2.2,9.5s0.6,7.2,1.8,9.4
			c1.2,2.1,3,3.2,5.4,3.2c0.9,0,1.7-0.1,2.3-0.2c0.6-0.2,1.2-0.4,1.8-0.8c0.6-0.4,1.2-0.8,1.8-1.5c0.6-0.6,1.1-1.2,1.4-1.7
			c0.3-0.5,0.5-1.1,0.7-1.8c0.1-0.7,0.2-1.5,0.2-2.6V36.2z"/>
		<path id="XMLID_383_" class="st0" d="M205.1,49.8c-1.4,1.4-2.6,2.6-3.8,3.4c-1.1,0.8-2.4,1.5-3.8,1.9c-1.4,0.5-2.9,0.7-4.5,0.7
			c-4.4,0-7.7-1.3-10-4c-2.2-2.6-3.4-6.5-3.4-11.7c0-3.2,0.6-6,1.7-8.4c1.1-2.4,2.8-4.3,4.9-5.7c2.1-1.3,4.6-2,7.3-2
			c2.2,0,4,0.3,5.5,1c1.5,0.7,2.7,1.6,3.6,2.8c0.9,1.2,1.6,2.7,2.1,4.5c0.5,1.8,0.8,4.2,0.9,7.1h-20.2V40c0,2.5,0.3,4.7,0.9,6.4
			c0.6,1.7,1.5,3.1,2.8,4c1.3,1,3,1.5,5.1,1.5c1.8,0,3.3-0.3,4.7-1c1.4-0.7,2.8-1.7,4.2-3.2L205.1,49.8z M199.7,36.7
			c-0.1-2.3-0.4-4.2-0.9-5.7c-0.4-1.5-1.1-2.6-2-3.4c-0.9-0.8-2.1-1.2-3.5-1.2c-2.2,0-4,0.9-5.3,2.6c-1.3,1.8-2.1,4.3-2.3,7.6H199.7
			z"/>
		<path id="XMLID_381_" class="st0" d="M256,11.4v9.7h-3.1c-0.5-1.5-0.9-2.6-1.4-3.5c-0.4-0.9-0.9-1.6-1.4-2.1c-0.5-0.5-1-0.8-1.7-1
			s-1.5-0.3-2.5-0.3h-9.4v17.5h6.6c0.9,0,1.7-0.2,2.2-0.5c0.5-0.3,1-0.8,1.3-1.6c0.4-0.7,0.7-1.9,1-3.4h3v13.6h-3
			c-0.3-1.5-0.7-2.6-1-3.3c-0.4-0.7-0.8-1.3-1.3-1.6c-0.5-0.3-1.2-0.5-2.2-0.5h-6.6v12.6c0,1.3,0.1,2.3,0.2,3.1
			c0.1,0.8,0.4,1.4,0.7,1.8c0.3,0.4,0.8,0.8,1.4,1c0.6,0.2,1.3,0.4,2.2,0.6v1.6h-14.3v-1.6c1.3-0.3,2.2-0.7,2.7-1.1
			c0.4-0.4,0.7-1,0.9-1.8c0.1-0.8,0.2-1.9,0.2-3.5V19.4c0-1.5-0.1-2.6-0.2-3.2c-0.1-0.7-0.3-1.2-0.5-1.6c-0.2-0.4-0.6-0.7-1-0.9
			c-0.4-0.2-1.1-0.5-2.1-0.8v-1.6H256z"/>
		<path id="XMLID_379_" class="st0" d="M292.1,11.4v9.7h-3.1c-0.3-1-0.7-2-1-2.8c-0.3-0.8-0.7-1.5-1.1-2c-0.4-0.5-0.8-1-1.2-1.3
			c-0.4-0.3-1-0.5-1.6-0.7c-0.6-0.1-1.3-0.2-2.2-0.2h-10.1v16.8h6.9c0.9,0,1.7-0.1,2.2-0.4c0.5-0.3,1-0.7,1.3-1.4
			c0.4-0.6,0.7-1.6,1-3h3v12.3h-3c-0.3-1.3-0.6-2.3-1-2.9c-0.4-0.7-0.8-1.1-1.3-1.4c-0.5-0.3-1.3-0.4-2.3-0.4h-6.9v18.5h10
			c1,0,1.9-0.1,2.6-0.3c0.7-0.2,1.2-0.5,1.7-0.9c0.5-0.4,0.9-1,1.3-1.7c0.4-0.7,0.7-1.4,0.9-2.2c0.2-0.8,0.6-1.9,1-3.3h3.2
			l-0.6,11.3h-29.7v-1.6c1.3-0.3,2.2-0.7,2.7-1.1c0.4-0.4,0.7-1,0.9-1.8c0.1-0.8,0.2-1.9,0.2-3.5V19.4c0-1.5-0.1-2.6-0.2-3.2
			c-0.1-0.7-0.3-1.2-0.5-1.6c-0.2-0.4-0.6-0.7-1-0.9c-0.4-0.2-1.1-0.5-2.1-0.8v-1.6H292.1z"/>
		<path id="XMLID_377_" class="st0" d="M309.7,52.3h8.4c0.9,0,1.7-0.1,2.3-0.2c0.6-0.1,1.2-0.3,1.6-0.5c0.4-0.2,0.8-0.5,1.2-0.9
			c0.4-0.4,0.7-0.9,1-1.6c0.3-0.6,0.6-1.5,0.9-2.4c0.3-1,0.6-2.4,1.1-4.4h3.2l-0.6,12.9h-28.9v-1.6c1.3-0.3,2.2-0.7,2.7-1.1
			s0.7-1,0.9-1.8c0.1-0.8,0.2-1.9,0.2-3.5V19.4c0-1.5-0.1-2.6-0.2-3.2c-0.1-0.7-0.3-1.2-0.5-1.6c-0.2-0.4-0.6-0.7-1-0.9
			c-0.4-0.2-1.1-0.5-2.1-0.8v-1.6h13.5V13c-0.9,0.3-1.6,0.5-2,0.7c-0.4,0.2-0.7,0.5-1,0.8c-0.3,0.3-0.4,0.9-0.6,1.6
			c-0.1,0.7-0.2,1.8-0.2,3.4V52.3z"/>
		<path id="XMLID_375_" class="st0" d="M345,47.2c0,1.4,0,2.5,0.1,3.1c0.1,0.7,0.3,1.2,0.5,1.6c0.2,0.4,0.6,0.7,1,1
			c0.4,0.3,1.2,0.5,2.1,0.8v1.6h-13.6v-1.6c1.3-0.3,2.2-0.7,2.7-1.1c0.4-0.4,0.7-1,0.9-1.8c0.1-0.8,0.2-1.9,0.2-3.5V19.4
			c0-1.5-0.1-2.6-0.2-3.2c-0.1-0.7-0.3-1.2-0.5-1.6c-0.2-0.4-0.6-0.7-1-0.9c-0.4-0.2-1.1-0.5-2.1-0.8v-1.6h13.6V13
			c-0.9,0.2-1.6,0.5-2,0.7c-0.4,0.2-0.7,0.5-1,0.9c-0.2,0.4-0.4,0.9-0.5,1.6c-0.1,0.7-0.2,1.8-0.2,3.3V47.2z"/>
		<path id="XMLID_373_" class="st0" d="M386.1,12.3v8.9h-3.2c-0.5-1.9-1.2-3.3-2-4.4c-0.8-1.1-1.7-1.9-2.8-2.4
			c-1-0.5-2.3-0.7-3.8-0.7c-2.2,0-4.2,0.7-5.9,2.2c-1.7,1.5-3.1,3.7-4.1,6.6c-1,2.9-1.5,6.5-1.5,10.7c0,4.2,0.4,7.8,1.2,10.7
			c0.8,3,2,5.2,3.6,6.7c1.6,1.5,3.5,2.3,5.8,2.3c1.8,0,3.2-0.3,4.3-0.8c1.1-0.5,2.1-1.3,2.8-2.4c0.8-1.1,1.5-2.7,2.2-4.8h3.2v9.2
			c-2,0.5-4.1,0.9-6.2,1.2c-2.1,0.3-4.4,0.4-7,0.4c-5.4,0-9.6-1.8-12.3-5.5c-2.8-3.7-4.2-9.2-4.2-16.5c0-4.6,0.7-8.6,2.2-12
			c1.4-3.4,3.6-6.1,6.4-8c2.8-1.9,6.2-2.8,10.1-2.8c1.9,0,3.7,0.1,5.4,0.3C382.1,11.4,384,11.8,386.1,12.3z"/>
		<path id="XMLID_370_" class="st0" d="M415.2,55.2v-1.6c1.1-0.2,1.9-0.4,2.4-0.7s0.9-0.6,1.2-1.1c0.3-0.5,0.4-1.1,0.4-1.8
			c0-0.7-0.1-1.5-0.3-2.4c-0.2-0.8-0.4-1.8-0.7-2.8l-1.2-4.1h-15l-1.1,3.1c-0.6,1.6-0.9,2.8-1.1,3.6c-0.2,0.8-0.3,1.6-0.3,2.2
			c0,1.3,0.3,2.2,1,2.8c0.7,0.6,1.7,1,3,1.2v1.6h-13.7v-1.6c1.2-0.2,2.2-0.9,3.1-2.1c0.9-1.2,1.8-2.9,2.6-5.1l13.4-35.6h5.1
			l10.9,35.8c0.5,1.7,1,2.9,1.4,3.8c0.4,0.9,0.9,1.6,1.4,2.1c0.6,0.5,1.3,0.9,2.3,1.1v1.6H415.2z M402.9,37.9h13.4l-6.1-20.7
			L402.9,37.9z"/>
	</g>
	<g id="XMLID_339_">
		<path id="XMLID_367_" class="st1" d="M37.7,12.3v8.9h-3.2c-0.5-1.9-1.2-3.3-2-4.4c-0.8-1.1-1.7-1.9-2.8-2.4
			c-1-0.5-2.3-0.7-3.8-0.7c-2.2,0-4.2,0.7-5.9,2.2c-1.7,1.5-3.1,3.7-4.1,6.6c-1,2.9-1.5,6.5-1.5,10.7c0,4.2,0.4,7.8,1.2,10.7
			c0.8,3,2,5.2,3.6,6.7c1.6,1.5,3.5,2.3,5.8,2.3c1.8,0,3.2-0.3,4.3-0.8c1.1-0.5,2.1-1.3,2.8-2.4c0.8-1.1,1.5-2.7,2.2-4.8h3.2v9.2
			c-2,0.5-4.1,0.9-6.2,1.2c-2.1,0.3-4.4,0.4-7,0.4c-5.4,0-9.6-1.8-12.3-5.5C9.4,46.6,8,41.1,8,33.8c0-4.6,0.7-8.6,2.2-12
			c1.4-3.4,3.6-6.1,6.4-8c2.8-1.9,6.2-2.8,10.1-2.8c1.9,0,3.7,0.1,5.4,0.3C33.7,11.4,35.5,11.8,37.7,12.3z"/>
		<path id="XMLID_364_" class="st1" d="M62.9,50.7l-0.5-0.1c-1.9,1.9-3.6,3.3-5.3,4c-1.6,0.8-3.4,1.2-5.2,1.2
			c-1.6,0-3.1-0.3-4.3-0.9c-1.2-0.6-2.2-1.5-2.9-2.7c-0.7-1.1-1-2.5-1-4c0-3.1,1.5-5.5,4.6-7.2c3.1-1.7,7.7-2.7,13.9-3v-2.1
			c0-2.2-0.2-4-0.6-5.3c-0.4-1.3-1.1-2.2-2-2.8c-0.9-0.6-2.2-0.9-3.7-0.9c-1.7,0-3,0.4-4,1.3c-1,0.9-1.8,2.2-2.3,4h-4.2V28
			c2.1-1.1,3.8-1.9,5.1-2.4c1.4-0.5,2.7-0.9,4.1-1.2c1.4-0.3,2.8-0.4,4.2-0.4c2.1,0,3.8,0.3,5.1,1c1.3,0.7,2.2,1.7,2.9,3.1
			c0.6,1.4,1,3.5,1,6.3v11.2c0,1.6,0,2.7,0,3.4c0,0.7,0.1,1.3,0.2,1.8c0.1,0.6,0.3,1,0.5,1.3c0.2,0.3,0.5,0.6,0.9,0.9
			c0.4,0.2,1.1,0.5,2,0.7v1.6h-8.8L62.9,50.7z M62.3,40.6c-4.3,0-7.6,0.6-9.8,1.7c-2.2,1.1-3.2,2.8-3.2,5c0,1.2,0.2,2.2,0.7,2.9
			c0.5,0.7,1.1,1.2,1.9,1.5c0.7,0.3,1.6,0.4,2.7,0.4c1.5,0,2.8-0.4,4-1.1c1.2-0.7,2.1-1.6,2.8-2.7c0.7-1.1,1-2.2,1-3.2V40.6z"/>
		<path id="XMLID_362_" class="st1" d="M92.9,27.8h-7.7v19.4c0,1.4,0.1,2.5,0.2,3.2c0.1,0.7,0.3,1.3,0.6,1.7
			c0.3,0.4,0.6,0.7,1.1,0.9c0.4,0.2,1.1,0.4,2.1,0.7v1.6H76.1v-1.6c0.9-0.3,1.6-0.5,2-0.7c0.4-0.2,0.7-0.5,0.9-0.9
			c0.2-0.4,0.4-0.9,0.5-1.6c0.1-0.7,0.2-1.8,0.2-3.2V27.8h-3.9v-1.6c0.8-0.1,1.4-0.2,1.6-0.3c0.3-0.1,0.5-0.2,0.8-0.3
			c0.2-0.1,0.5-0.4,0.6-0.6c0.2-0.3,0.3-0.7,0.5-1.2c0.1-0.5,0.3-1.3,0.3-2.3c0.2-2.3,0.6-4.2,1.3-5.7c0.7-1.5,1.6-2.7,2.9-3.7
			s2.6-1.8,4-2.2c1.4-0.4,3.1-0.6,5-0.6c1.7,0,3.1,0.1,4.3,0.4v5.8H94c-0.4-1.3-0.9-2.2-1.4-2.7c-0.5-0.5-1.3-0.8-2.3-0.8
			c-0.7,0-1.3,0.1-1.8,0.3c-0.5,0.2-0.9,0.5-1.3,0.9c-0.4,0.4-0.8,1-1,1.6c-0.3,0.7-0.5,1.5-0.6,2.6c-0.1,1-0.2,2.3-0.2,4v3.4h7.7
			V27.8z"/>
		<path id="XMLID_359_" class="st1" d="M122,49.8c-1.4,1.4-2.6,2.6-3.8,3.4c-1.1,0.8-2.4,1.5-3.8,1.9c-1.4,0.5-2.9,0.7-4.5,0.7
			c-4.4,0-7.7-1.3-10-4c-2.2-2.6-3.4-6.5-3.4-11.7c0-3.2,0.6-6,1.7-8.4c1.1-2.4,2.8-4.3,4.9-5.7c2.1-1.3,4.6-2,7.3-2
			c2.2,0,4,0.3,5.5,1c1.5,0.7,2.7,1.6,3.6,2.8c0.9,1.2,1.6,2.7,2.1,4.5c0.5,1.8,0.8,4.2,0.9,7.1h-20.2V40c0,2.5,0.3,4.7,0.9,6.4
			c0.6,1.7,1.5,3.1,2.8,4c1.3,1,3,1.5,5.1,1.5c1.8,0,3.3-0.3,4.7-1c1.4-0.7,2.8-1.7,4.2-3.2L122,49.8z M116.6,36.7
			c-0.1-2.3-0.4-4.2-0.9-5.7c-0.4-1.5-1.1-2.6-2-3.4c-0.9-0.8-2.1-1.2-3.5-1.2c-2.2,0-4,0.9-5.3,2.6c-1.3,1.8-2.1,4.3-2.3,7.6H116.6
			z"/>
		<path id="XMLID_356_" class="st1" d="M164.6,20.3c0-2.1,0-3.5,0-4.3c0-0.8-0.1-1.5-0.3-2.1c-0.1-0.6-0.3-1-0.6-1.3
			c-0.2-0.3-0.6-0.6-1-0.8s-1.2-0.4-2.3-0.6V9.6l7.8-0.3h1.9v37.2c0,1.7,0,2.9,0.1,3.6c0.1,0.7,0.2,1.3,0.4,1.7c0.2,0.4,0.6,0.8,1,1
			c0.5,0.3,1.3,0.5,2.4,0.8v1.7l-7.6,0.3h-1.9l0.4-5.3l-0.5-0.1c-1.3,1.4-2.5,2.5-3.5,3.2c-1,0.7-2.1,1.3-3.2,1.7s-2.3,0.6-3.6,0.6
			c-3.5,0-6.2-1.3-8.1-4c-1.9-2.7-2.9-6.5-2.9-11.5c0-3.5,0.6-6.5,1.9-8.9c1.2-2.5,2.9-4.3,5-5.5c2.1-1.2,4.5-1.8,7.1-1.8
			c1.4,0,2.7,0.1,3.9,0.3s2.3,0.6,3.6,1.1V20.3z M164.6,36.2c0-1.7-0.1-3-0.2-4c-0.1-1-0.4-1.9-0.8-2.5c-0.4-0.7-0.8-1.3-1.4-1.7
			c-0.6-0.5-1.3-0.8-2-1c-0.7-0.2-1.6-0.3-2.6-0.3c-2.7,0-4.8,1.1-6.3,3.3c-1.4,2.2-2.2,5.3-2.2,9.5s0.6,7.2,1.8,9.4
			c1.2,2.1,3,3.2,5.4,3.2c0.9,0,1.7-0.1,2.3-0.2c0.6-0.2,1.2-0.4,1.8-0.8c0.6-0.4,1.2-0.8,1.8-1.5c0.6-0.6,1.1-1.2,1.4-1.7
			c0.3-0.5,0.5-1.1,0.7-1.8c0.1-0.7,0.2-1.5,0.2-2.6V36.2z"/>
		<path id="XMLID_353_" class="st1" d="M205.1,49.8c-1.4,1.4-2.6,2.6-3.8,3.4c-1.1,0.8-2.4,1.5-3.8,1.9c-1.4,0.5-2.9,0.7-4.5,0.7
			c-4.4,0-7.7-1.3-10-4c-2.2-2.6-3.4-6.5-3.4-11.7c0-3.2,0.6-6,1.7-8.4c1.1-2.4,2.8-4.3,4.9-5.7c2.1-1.3,4.6-2,7.3-2
			c2.2,0,4,0.3,5.5,1c1.5,0.7,2.7,1.6,3.6,2.8c0.9,1.2,1.6,2.7,2.1,4.5c0.5,1.8,0.8,4.2,0.9,7.1h-20.2V40c0,2.5,0.3,4.7,0.9,6.4
			c0.6,1.7,1.5,3.1,2.8,4c1.3,1,3,1.5,5.1,1.5c1.8,0,3.3-0.3,4.7-1c1.4-0.7,2.8-1.7,4.2-3.2L205.1,49.8z M199.7,36.7
			c-0.1-2.3-0.4-4.2-0.9-5.7c-0.4-1.5-1.1-2.6-2-3.4c-0.9-0.8-2.1-1.2-3.5-1.2c-2.2,0-4,0.9-5.3,2.6c-1.3,1.8-2.1,4.3-2.3,7.6H199.7
			z"/>
		<path id="XMLID_351_" class="st1" d="M256,11.4v9.7h-3.1c-0.5-1.5-0.9-2.6-1.4-3.5c-0.4-0.9-0.9-1.6-1.4-2.1c-0.5-0.5-1-0.8-1.7-1
			s-1.5-0.3-2.5-0.3h-9.4v17.5h6.6c0.9,0,1.7-0.2,2.2-0.5c0.5-0.3,1-0.8,1.3-1.6c0.4-0.7,0.7-1.9,1-3.4h3v13.6h-3
			c-0.3-1.5-0.7-2.6-1-3.3c-0.4-0.7-0.8-1.3-1.3-1.6c-0.5-0.3-1.2-0.5-2.2-0.5h-6.6v12.6c0,1.3,0.1,2.3,0.2,3.1
			c0.1,0.8,0.4,1.4,0.7,1.8c0.3,0.4,0.8,0.8,1.4,1c0.6,0.2,1.3,0.4,2.2,0.6v1.6h-14.3v-1.6c1.3-0.3,2.2-0.7,2.7-1.1
			c0.4-0.4,0.7-1,0.9-1.8c0.1-0.8,0.2-1.9,0.2-3.5V19.4c0-1.5-0.1-2.6-0.2-3.2c-0.1-0.7-0.3-1.2-0.5-1.6c-0.2-0.4-0.6-0.7-1-0.9
			c-0.4-0.2-1.1-0.5-2.1-0.8v-1.6H256z"/>
		<path id="XMLID_349_" class="st1" d="M292.1,11.4v9.7h-3.1c-0.3-1-0.7-2-1-2.8c-0.3-0.8-0.7-1.5-1.1-2c-0.4-0.5-0.8-1-1.2-1.3
			c-0.4-0.3-1-0.5-1.6-0.7c-0.6-0.1-1.3-0.2-2.2-0.2h-10.1v16.8h6.9c0.9,0,1.7-0.1,2.2-0.4c0.5-0.3,1-0.7,1.3-1.4
			c0.4-0.6,0.7-1.6,1-3h3v12.3h-3c-0.3-1.3-0.6-2.3-1-2.9c-0.4-0.7-0.8-1.1-1.3-1.4c-0.5-0.3-1.3-0.4-2.3-0.4h-6.9v18.5h10
			c1,0,1.9-0.1,2.6-0.3c0.7-0.2,1.2-0.5,1.7-0.9c0.5-0.4,0.9-1,1.3-1.7c0.4-0.7,0.7-1.4,0.9-2.2c0.2-0.8,0.6-1.9,1-3.3h3.2
			l-0.6,11.3h-29.7v-1.6c1.3-0.3,2.2-0.7,2.7-1.1c0.4-0.4,0.7-1,0.9-1.8c0.1-0.8,0.2-1.9,0.2-3.5V19.4c0-1.5-0.1-2.6-0.2-3.2
			c-0.1-0.7-0.3-1.2-0.5-1.6c-0.2-0.4-0.6-0.7-1-0.9c-0.4-0.2-1.1-0.5-2.1-0.8v-1.6H292.1z"/>
		<path id="XMLID_347_" class="st1" d="M309.7,52.3h8.4c0.9,0,1.7-0.1,2.3-0.2c0.6-0.1,1.2-0.3,1.6-0.5c0.4-0.2,0.8-0.5,1.2-0.9
			c0.4-0.4,0.7-0.9,1-1.6c0.3-0.6,0.6-1.5,0.9-2.4c0.3-1,0.6-2.4,1.1-4.4h3.2l-0.6,12.9h-28.9v-1.6c1.3-0.3,2.2-0.7,2.7-1.1
			s0.7-1,0.9-1.8c0.1-0.8,0.2-1.9,0.2-3.5V19.4c0-1.5-0.1-2.6-0.2-3.2c-0.1-0.7-0.3-1.2-0.5-1.6c-0.2-0.4-0.6-0.7-1-0.9
			c-0.4-0.2-1.1-0.5-2.1-0.8v-1.6h13.5V13c-0.9,0.3-1.6,0.5-2,0.7c-0.4,0.2-0.7,0.5-1,0.8c-0.3,0.3-0.4,0.9-0.6,1.6
			c-0.1,0.7-0.2,1.8-0.2,3.4V52.3z"/>
		<path id="XMLID_345_" class="st1" d="M345,47.2c0,1.4,0,2.5,0.1,3.1c0.1,0.7,0.3,1.2,0.5,1.6c0.2,0.4,0.6,0.7,1,1
			c0.4,0.3,1.2,0.5,2.1,0.8v1.6h-13.6v-1.6c1.3-0.3,2.2-0.7,2.7-1.1c0.4-0.4,0.7-1,0.9-1.8c0.1-0.8,0.2-1.9,0.2-3.5V19.4
			c0-1.5-0.1-2.6-0.2-3.2c-0.1-0.7-0.3-1.2-0.5-1.6c-0.2-0.4-0.6-0.7-1-0.9c-0.4-0.2-1.1-0.5-2.1-0.8v-1.6h13.6V13
			c-0.9,0.2-1.6,0.5-2,0.7c-0.4,0.2-0.7,0.5-1,0.9c-0.2,0.4-0.4,0.9-0.5,1.6c-0.1,0.7-0.2,1.8-0.2,3.3V47.2z"/>
		<path id="XMLID_343_" class="st1" d="M386.1,12.3v8.9h-3.2c-0.5-1.9-1.2-3.3-2-4.4c-0.8-1.1-1.7-1.9-2.8-2.4
			c-1-0.5-2.3-0.7-3.8-0.7c-2.2,0-4.2,0.7-5.9,2.2c-1.7,1.5-3.1,3.7-4.1,6.6c-1,2.9-1.5,6.5-1.5,10.7c0,4.2,0.4,7.8,1.2,10.7
			c0.8,3,2,5.2,3.6,6.7c1.6,1.5,3.5,2.3,5.8,2.3c1.8,0,3.2-0.3,4.3-0.8c1.1-0.5,2.1-1.3,2.8-2.4c0.8-1.1,1.5-2.7,2.2-4.8h3.2v9.2
			c-2,0.5-4.1,0.9-6.2,1.2c-2.1,0.3-4.4,0.4-7,0.4c-5.4,0-9.6-1.8-12.3-5.5c-2.8-3.7-4.2-9.2-4.2-16.5c0-4.6,0.7-8.6,2.2-12
			c1.4-3.4,3.6-6.1,6.4-8c2.8-1.9,6.2-2.8,10.1-2.8c1.9,0,3.7,0.1,5.4,0.3C382.1,11.4,384,11.8,386.1,12.3z"/>
		<path id="XMLID_340_" class="st1" d="M415.2,55.2v-1.6c1.1-0.2,1.9-0.4,2.4-0.7s0.9-0.6,1.2-1.1c0.3-0.5,0.4-1.1,0.4-1.8
			c0-0.7-0.1-1.5-0.3-2.4c-0.2-0.8-0.4-1.8-0.7-2.8l-1.2-4.1h-15l-1.1,3.1c-0.6,1.6-0.9,2.8-1.1,3.6c-0.2,0.8-0.3,1.6-0.3,2.2
			c0,1.3,0.3,2.2,1,2.8c0.7,0.6,1.7,1,3,1.2v1.6h-13.7v-1.6c1.2-0.2,2.2-0.9,3.1-2.1c0.9-1.2,1.8-2.9,2.6-5.1l13.4-35.6h5.1
			l10.9,35.8c0.5,1.7,1,2.9,1.4,3.8c0.4,0.9,0.9,1.6,1.4,2.1c0.6,0.5,1.3,0.9,2.3,1.1v1.6H415.2z M402.9,37.9h13.4l-6.1-20.7
			L402.9,37.9z"/>
	</g>
	<g id="XMLID_309_">
		<path id="XMLID_337_" class="st2" d="M37.7,12.3v8.9h-3.2c-0.5-1.9-1.2-3.3-2-4.4c-0.8-1.1-1.7-1.9-2.8-2.4
			c-1-0.5-2.3-0.7-3.8-0.7c-2.2,0-4.2,0.7-5.9,2.2c-1.7,1.5-3.1,3.7-4.1,6.6c-1,2.9-1.5,6.5-1.5,10.7c0,4.2,0.4,7.8,1.2,10.7
			c0.8,3,2,5.2,3.6,6.7c1.6,1.5,3.5,2.3,5.8,2.3c1.8,0,3.2-0.3,4.3-0.8c1.1-0.5,2.1-1.3,2.8-2.4c0.8-1.1,1.5-2.7,2.2-4.8h3.2v9.2
			c-2,0.5-4.1,0.9-6.2,1.2c-2.1,0.3-4.4,0.4-7,0.4c-5.4,0-9.6-1.8-12.3-5.5C9.4,46.6,8,41.1,8,33.8c0-4.6,0.7-8.6,2.2-12
			c1.4-3.4,3.6-6.1,6.4-8c2.8-1.9,6.2-2.8,10.1-2.8c1.9,0,3.7,0.1,5.4,0.3C33.7,11.4,35.5,11.8,37.7,12.3z"/>
		<path id="XMLID_334_" class="st2" d="M62.9,50.7l-0.5-0.1c-1.9,1.9-3.6,3.3-5.3,4c-1.6,0.8-3.4,1.2-5.2,1.2
			c-1.6,0-3.1-0.3-4.3-0.9c-1.2-0.6-2.2-1.5-2.9-2.7c-0.7-1.1-1-2.5-1-4c0-3.1,1.5-5.5,4.6-7.2c3.1-1.7,7.7-2.7,13.9-3v-2.1
			c0-2.2-0.2-4-0.6-5.3c-0.4-1.3-1.1-2.2-2-2.8c-0.9-0.6-2.2-0.9-3.7-0.9c-1.7,0-3,0.4-4,1.3c-1,0.9-1.8,2.2-2.3,4h-4.2V28
			c2.1-1.1,3.8-1.9,5.1-2.4c1.4-0.5,2.7-0.9,4.1-1.2c1.4-0.3,2.8-0.4,4.2-0.4c2.1,0,3.8,0.3,5.1,1c1.3,0.7,2.2,1.7,2.9,3.1
			c0.6,1.4,1,3.5,1,6.3v11.2c0,1.6,0,2.7,0,3.4c0,0.7,0.1,1.3,0.2,1.8c0.1,0.6,0.3,1,0.5,1.3c0.2,0.3,0.5,0.6,0.9,0.9
			c0.4,0.2,1.1,0.5,2,0.7v1.6h-8.8L62.9,50.7z M62.3,40.6c-4.3,0-7.6,0.6-9.8,1.7c-2.2,1.1-3.2,2.8-3.2,5c0,1.2,0.2,2.2,0.7,2.9
			c0.5,0.7,1.1,1.2,1.9,1.5c0.7,0.3,1.6,0.4,2.7,0.4c1.5,0,2.8-0.4,4-1.1c1.2-0.7,2.1-1.6,2.8-2.7c0.7-1.1,1-2.2,1-3.2V40.6z"/>
		<path id="XMLID_332_" class="st2" d="M92.9,27.8h-7.7v19.4c0,1.4,0.1,2.5,0.2,3.2c0.1,0.7,0.3,1.3,0.6,1.7
			c0.3,0.4,0.6,0.7,1.1,0.9c0.4,0.2,1.1,0.4,2.1,0.7v1.6H76.1v-1.6c0.9-0.3,1.6-0.5,2-0.7c0.4-0.2,0.7-0.5,0.9-0.9
			c0.2-0.4,0.4-0.9,0.5-1.6c0.1-0.7,0.2-1.8,0.2-3.2V27.8h-3.9v-1.6c0.8-0.1,1.4-0.2,1.6-0.3c0.3-0.1,0.5-0.2,0.8-0.3
			c0.2-0.1,0.5-0.4,0.6-0.6c0.2-0.3,0.3-0.7,0.5-1.2c0.1-0.5,0.3-1.3,0.3-2.3c0.2-2.3,0.6-4.2,1.3-5.7c0.7-1.5,1.6-2.7,2.9-3.7
			s2.6-1.8,4-2.2c1.4-0.4,3.1-0.6,5-0.6c1.7,0,3.1,0.1,4.3,0.4v5.8H94c-0.4-1.3-0.9-2.2-1.4-2.7c-0.5-0.5-1.3-0.8-2.3-0.8
			c-0.7,0-1.3,0.1-1.8,0.3c-0.5,0.2-0.9,0.5-1.3,0.9c-0.4,0.4-0.8,1-1,1.6c-0.3,0.7-0.5,1.5-0.6,2.6c-0.1,1-0.2,2.3-0.2,4v3.4h7.7
			V27.8z"/>
		<path id="XMLID_329_" class="st2" d="M122,49.8c-1.4,1.4-2.6,2.6-3.8,3.4c-1.1,0.8-2.4,1.5-3.8,1.9c-1.4,0.5-2.9,0.7-4.5,0.7
			c-4.4,0-7.7-1.3-10-4c-2.2-2.6-3.4-6.5-3.4-11.7c0-3.2,0.6-6,1.7-8.4c1.1-2.4,2.8-4.3,4.9-5.7c2.1-1.3,4.6-2,7.3-2
			c2.2,0,4,0.3,5.5,1c1.5,0.7,2.7,1.6,3.6,2.8c0.9,1.2,1.6,2.7,2.1,4.5c0.5,1.8,0.8,4.2,0.9,7.1h-20.2V40c0,2.5,0.3,4.7,0.9,6.4
			c0.6,1.7,1.5,3.1,2.8,4c1.3,1,3,1.5,5.1,1.5c1.8,0,3.3-0.3,4.7-1c1.4-0.7,2.8-1.7,4.2-3.2L122,49.8z M116.6,36.7
			c-0.1-2.3-0.4-4.2-0.9-5.7c-0.4-1.5-1.1-2.6-2-3.4c-0.9-0.8-2.1-1.2-3.5-1.2c-2.2,0-4,0.9-5.3,2.6c-1.3,1.8-2.1,4.3-2.3,7.6H116.6
			z"/>
		<path id="XMLID_326_" class="st2" d="M164.6,20.3c0-2.1,0-3.5,0-4.3c0-0.8-0.1-1.5-0.3-2.1c-0.1-0.6-0.3-1-0.6-1.3
			c-0.2-0.3-0.6-0.6-1-0.8s-1.2-0.4-2.3-0.6V9.6l7.8-0.3h1.9v37.2c0,1.7,0,2.9,0.1,3.6c0.1,0.7,0.2,1.3,0.4,1.7c0.2,0.4,0.6,0.8,1,1
			c0.5,0.3,1.3,0.5,2.4,0.8v1.7l-7.6,0.3h-1.9l0.4-5.3l-0.5-0.1c-1.3,1.4-2.5,2.5-3.5,3.2c-1,0.7-2.1,1.3-3.2,1.7s-2.3,0.6-3.6,0.6
			c-3.5,0-6.2-1.3-8.1-4c-1.9-2.7-2.9-6.5-2.9-11.5c0-3.5,0.6-6.5,1.9-8.9c1.2-2.5,2.9-4.3,5-5.5c2.1-1.2,4.5-1.8,7.1-1.8
			c1.4,0,2.7,0.1,3.9,0.3s2.3,0.6,3.6,1.1V20.3z M164.6,36.2c0-1.7-0.1-3-0.2-4c-0.1-1-0.4-1.9-0.8-2.5c-0.4-0.7-0.8-1.3-1.4-1.7
			c-0.6-0.5-1.3-0.8-2-1c-0.7-0.2-1.6-0.3-2.6-0.3c-2.7,0-4.8,1.1-6.3,3.3c-1.4,2.2-2.2,5.3-2.2,9.5s0.6,7.2,1.8,9.4
			c1.2,2.1,3,3.2,5.4,3.2c0.9,0,1.7-0.1,2.3-0.2c0.6-0.2,1.2-0.4,1.8-0.8c0.6-0.4,1.2-0.8,1.8-1.5c0.6-0.6,1.1-1.2,1.4-1.7
			c0.3-0.5,0.5-1.1,0.7-1.8c0.1-0.7,0.2-1.5,0.2-2.6V36.2z"/>
		<path id="XMLID_323_" class="st2" d="M205.1,49.8c-1.4,1.4-2.6,2.6-3.8,3.4c-1.1,0.8-2.4,1.5-3.8,1.9c-1.4,0.5-2.9,0.7-4.5,0.7
			c-4.4,0-7.7-1.3-10-4c-2.2-2.6-3.4-6.5-3.4-11.7c0-3.2,0.6-6,1.7-8.4c1.1-2.4,2.8-4.3,4.9-5.7c2.1-1.3,4.6-2,7.3-2
			c2.2,0,4,0.3,5.5,1c1.5,0.7,2.7,1.6,3.6,2.8c0.9,1.2,1.6,2.7,2.1,4.5c0.5,1.8,0.8,4.2,0.9,7.1h-20.2V40c0,2.5,0.3,4.7,0.9,6.4
			c0.6,1.7,1.5,3.1,2.8,4c1.3,1,3,1.5,5.1,1.5c1.8,0,3.3-0.3,4.7-1c1.4-0.7,2.8-1.7,4.2-3.2L205.1,49.8z M199.7,36.7
			c-0.1-2.3-0.4-4.2-0.9-5.7c-0.4-1.5-1.1-2.6-2-3.4c-0.9-0.8-2.1-1.2-3.5-1.2c-2.2,0-4,0.9-5.3,2.6c-1.3,1.8-2.1,4.3-2.3,7.6H199.7
			z"/>
		<path id="XMLID_321_" class="st2" d="M256,11.4v9.7h-3.1c-0.5-1.5-0.9-2.6-1.4-3.5c-0.4-0.9-0.9-1.6-1.4-2.1c-0.5-0.5-1-0.8-1.7-1
			s-1.5-0.3-2.5-0.3h-9.4v17.5h6.6c0.9,0,1.7-0.2,2.2-0.5c0.5-0.3,1-0.8,1.3-1.6c0.4-0.7,0.7-1.9,1-3.4h3v13.6h-3
			c-0.3-1.5-0.7-2.6-1-3.3c-0.4-0.7-0.8-1.3-1.3-1.6c-0.5-0.3-1.2-0.5-2.2-0.5h-6.6v12.6c0,1.3,0.1,2.3,0.2,3.1
			c0.1,0.8,0.4,1.4,0.7,1.8c0.3,0.4,0.8,0.8,1.4,1c0.6,0.2,1.3,0.4,2.2,0.6v1.6h-14.3v-1.6c1.3-0.3,2.2-0.7,2.7-1.1
			c0.4-0.4,0.7-1,0.9-1.8c0.1-0.8,0.2-1.9,0.2-3.5V19.4c0-1.5-0.1-2.6-0.2-3.2c-0.1-0.7-0.3-1.2-0.5-1.6c-0.2-0.4-0.6-0.7-1-0.9
			c-0.4-0.2-1.1-0.5-2.1-0.8v-1.6H256z"/>
		<path id="XMLID_319_" class="st2" d="M292.1,11.4v9.7h-3.1c-0.3-1-0.7-2-1-2.8c-0.3-0.8-0.7-1.5-1.1-2c-0.4-0.5-0.8-1-1.2-1.3
			c-0.4-0.3-1-0.5-1.6-0.7c-0.6-0.1-1.3-0.2-2.2-0.2h-10.1v16.8h6.9c0.9,0,1.7-0.1,2.2-0.4c0.5-0.3,1-0.7,1.3-1.4
			c0.4-0.6,0.7-1.6,1-3h3v12.3h-3c-0.3-1.3-0.6-2.3-1-2.9c-0.4-0.7-0.8-1.1-1.3-1.4c-0.5-0.3-1.3-0.4-2.3-0.4h-6.9v18.5h10
			c1,0,1.9-0.1,2.6-0.3c0.7-0.2,1.2-0.5,1.7-0.9c0.5-0.4,0.9-1,1.3-1.7c0.4-0.7,0.7-1.4,0.9-2.2c0.2-0.8,0.6-1.9,1-3.3h3.2
			l-0.6,11.3h-29.7v-1.6c1.3-0.3,2.2-0.7,2.7-1.1c0.4-0.4,0.7-1,0.9-1.8c0.1-0.8,0.2-1.9,0.2-3.5V19.4c0-1.5-0.1-2.6-0.2-3.2
			c-0.1-0.7-0.3-1.2-0.5-1.6c-0.2-0.4-0.6-0.7-1-0.9c-0.4-0.2-1.1-0.5-2.1-0.8v-1.6H292.1z"/>
		<path id="XMLID_317_" class="st2" d="M309.7,52.3h8.4c0.9,0,1.7-0.1,2.3-0.2c0.6-0.1,1.2-0.3,1.6-0.5c0.4-0.2,0.8-0.5,1.2-0.9
			c0.4-0.4,0.7-0.9,1-1.6c0.3-0.6,0.6-1.5,0.9-2.4c0.3-1,0.6-2.4,1.1-4.4h3.2l-0.6,12.9h-28.9v-1.6c1.3-0.3,2.2-0.7,2.7-1.1
			s0.7-1,0.9-1.8c0.1-0.8,0.2-1.9,0.2-3.5V19.4c0-1.5-0.1-2.6-0.2-3.2c-0.1-0.7-0.3-1.2-0.5-1.6c-0.2-0.4-0.6-0.7-1-0.9
			c-0.4-0.2-1.1-0.5-2.1-0.8v-1.6h13.5V13c-0.9,0.3-1.6,0.5-2,0.7c-0.4,0.2-0.7,0.5-1,0.8c-0.3,0.3-0.4,0.9-0.6,1.6
			c-0.1,0.7-0.2,1.8-0.2,3.4V52.3z"/>
		<path id="XMLID_315_" class="st2" d="M345,47.2c0,1.4,0,2.5,0.1,3.1c0.1,0.7,0.3,1.2,0.5,1.6c0.2,0.4,0.6,0.7,1,1
			c0.4,0.3,1.2,0.5,2.1,0.8v1.6h-13.6v-1.6c1.3-0.3,2.2-0.7,2.7-1.1c0.4-0.4,0.7-1,0.9-1.8c0.1-0.8,0.2-1.9,0.2-3.5V19.4
			c0-1.5-0.1-2.6-0.2-3.2c-0.1-0.7-0.3-1.2-0.5-1.6c-0.2-0.4-0.6-0.7-1-0.9c-0.4-0.2-1.1-0.5-2.1-0.8v-1.6h13.6V13
			c-0.9,0.2-1.6,0.5-2,0.7c-0.4,0.2-0.7,0.5-1,0.9c-0.2,0.4-0.4,0.9-0.5,1.6c-0.1,0.7-0.2,1.8-0.2,3.3V47.2z"/>
		<path id="XMLID_313_" class="st2" d="M386.1,12.3v8.9h-3.2c-0.5-1.9-1.2-3.3-2-4.4c-0.8-1.1-1.7-1.9-2.8-2.4
			c-1-0.5-2.3-0.7-3.8-0.7c-2.2,0-4.2,0.7-5.9,2.2c-1.7,1.5-3.1,3.7-4.1,6.6c-1,2.9-1.5,6.5-1.5,10.7c0,4.2,0.4,7.8,1.2,10.7
			c0.8,3,2,5.2,3.6,6.7c1.6,1.5,3.5,2.3,5.8,2.3c1.8,0,3.2-0.3,4.3-0.8c1.1-0.5,2.1-1.3,2.8-2.4c0.8-1.1,1.5-2.7,2.2-4.8h3.2v9.2
			c-2,0.5-4.1,0.9-6.2,1.2c-2.1,0.3-4.4,0.4-7,0.4c-5.4,0-9.6-1.8-12.3-5.5c-2.8-3.7-4.2-9.2-4.2-16.5c0-4.6,0.7-8.6,2.2-12
			c1.4-3.4,3.6-6.1,6.4-8c2.8-1.9,6.2-2.8,10.1-2.8c1.9,0,3.7,0.1,5.4,0.3C382.1,11.4,384,11.8,386.1,12.3z"/>
		<path id="XMLID_310_" class="st2" d="M415.2,55.2v-1.6c1.1-0.2,1.9-0.4,2.4-0.7s0.9-0.6,1.2-1.1c0.3-0.5,0.4-1.1,0.4-1.8
			c0-0.7-0.1-1.5-0.3-2.4c-0.2-0.8-0.4-1.8-0.7-2.8l-1.2-4.1h-15l-1.1,3.1c-0.6,1.6-0.9,2.8-1.1,3.6c-0.2,0.8-0.3,1.6-0.3,2.2
			c0,1.3,0.3,2.2,1,2.8c0.7,0.6,1.7,1,3,1.2v1.6h-13.7v-1.6c1.2-0.2,2.2-0.9,3.1-2.1c0.9-1.2,1.8-2.9,2.6-5.1l13.4-35.6h5.1
			l10.9,35.8c0.5,1.7,1,2.9,1.4,3.8c0.4,0.9,0.9,1.6,1.4,2.1c0.6,0.5,1.3,0.9,2.3,1.1v1.6H415.2z M402.9,37.9h13.4l-6.1-20.7
			L402.9,37.9z"/>
	</g>
</g>
</svg>
