<?xml version="1.0" encoding="utf-8"?>
<!-- Generator: Adobe Illustrator 24.3.0, SVG Export Plug-In . SVG Version: 6.00 Build 0)  -->
<svg version="1.1" xmlns="http://www.w3.org/2000/svg" xmlns:xlink="http://www.w3.org/1999/xlink" x="0px" y="0px"
	 viewBox="0 0 1452.98 182.36" style="enable-background:new 0 0 1452.98 182.36;" xml:space="preserve">
<style type="text/css">
	.st0{fill:#FFFFFF;}
</style>
<g id="レイヤー_1">
</g>
<g id="レイヤー_2">
	<g>
		<path class="st0" d="M39.24,65.75c-0.38,0-2.4-0.02-6.05-0.05c-3.65-0.03-8.32-0.05-14-0.05c-3.73,0-7.28,0.02-10.65,0.05
			C5.17,65.73,2.33,65.75,0,65.75c0.06-5.49,0.12-11.05,0.17-16.68c0.05-5.63,0.07-11.16,0.07-16.58c0-9.06-0.03-15.97-0.1-20.72
			C0.08,7.02,0.03,3.68,0,1.77h7.9c-0.06,4.11-0.11,8.86-0.14,14.25c-0.03,5.39-0.05,9.8-0.05,13.24c0,8.38,0.02,15.38,0.05,20.99
			c0.03,5.61,0.05,8.57,0.05,8.89c1.31,0,2.89,0.01,4.74,0.02c1.85,0.02,3.52,0.02,5.02,0.02c5.71,0,10.68-0.02,14.91-0.07
			c4.23-0.05,6.48-0.07,6.77-0.07V65.75z"/>
		<path class="st0" d="M146.77,33.83c0,5.17-0.89,9.91-2.65,14.24c-1.77,4.32-4.07,7.89-6.91,10.69c-3.16,3.13-6.5,5.4-10.04,6.82
			s-7.33,2.13-11.38,2.13c-3.95,0-7.68-0.68-11.19-2.03c-3.51-1.36-6.66-3.37-9.47-6.05c-3.09-2.9-5.59-6.56-7.48-10.98
			c-1.9-4.42-2.84-9.39-2.84-14.91c0-4.91,0.75-9.39,2.25-13.42c1.5-4.04,3.75-7.66,6.74-10.89c2.77-3,6.07-5.32,9.9-6.96
			c3.83-1.64,7.86-2.46,12.1-2.46c4.3,0,8.29,0.77,11.95,2.32c3.67,1.55,6.84,3.69,9.52,6.44c3.12,3.19,5.49,6.95,7.1,11.27
			C145.97,24.35,146.77,28.95,146.77,33.83z M138.64,34.6c0-4.15-0.7-8.22-2.08-12.23c-1.39-4-3.5-7.36-6.35-10.07
			c-1.92-1.85-4.06-3.29-6.44-4.31c-2.38-1.02-5.04-1.53-7.98-1.53c-2.87,0-5.55,0.52-8.02,1.56c-2.47,1.04-4.72,2.56-6.73,4.57
			c-2.55,2.55-4.54,5.71-5.96,9.47c-1.42,3.76-2.13,7.69-2.13,11.77c0,4.59,0.73,8.71,2.18,12.35c1.45,3.64,3.5,6.72,6.16,9.24
			c1.82,1.75,3.97,3.17,6.47,4.23c2.49,1.07,5.16,1.6,8,1.6c2.84,0,5.5-0.52,7.98-1.56c2.47-1.04,4.72-2.53,6.73-4.47
			c2.4-2.3,4.36-5.22,5.89-8.78C137.87,42.88,138.64,38.94,138.64,34.6z"/>
		<path class="st0" d="M256.51,1.77c-0.06,5.01-0.12,10.74-0.17,17.18c-0.05,6.44-0.07,11.09-0.07,13.92c0,9.06,0.03,16.26,0.1,21.6
			c0.06,5.34,0.1,8.19,0.1,8.54l-6.36,3.11c-9.63-13.01-18.64-24.76-27.01-35.24s-13.22-16.53-14.52-18.16l-0.1,0.05
			c0,8.55,0.06,19.05,0.17,31.5c0.11,12.46,0.18,19.64,0.21,21.55h-7.46c0.03-0.8,0.08-3.64,0.14-8.52
			c0.06-4.88,0.1-11.68,0.1-20.38c0-3.48-0.02-8.09-0.05-13.85c-0.03-5.76-0.1-11.86-0.19-18.3l7.27-3.45
			c0.57,0.73,5.46,6.93,14.67,18.6c9.2,11.67,17.87,22.51,26.01,32.52l0.1-0.05c0-4.91-0.06-13.17-0.19-24.79
			c-0.13-11.62-0.19-20.24-0.19-25.85H256.51z"/>
		<path class="st0" d="M363.42,32.92c-0.06,2.3-0.13,4.98-0.19,8.06c-0.06,3.08-0.1,5.62-0.1,7.63c0,3.22,0.03,6.82,0.1,10.79
			c0.06,3.97,0.1,6.18,0.1,6.63c-0.29,0.03-1.24,0.1-2.87,0.22c-1.63,0.11-3.21,0.17-4.74,0.17c-7.59,0-14.3-0.81-20.12-2.44
			c-5.82-1.63-10.87-4.47-15.15-8.52c-2.65-2.49-4.78-5.57-6.39-9.26c-1.61-3.68-2.42-7.89-2.42-12.61c0-5.81,1.54-11,4.62-15.58
			c3.08-4.58,7.31-8.27,12.7-11.08c3.67-1.91,7.84-3.36,12.51-4.33c4.67-0.97,9.55-1.46,14.62-1.46c0.8,0,1.54,0.01,2.23,0.02
			c0.69,0.02,1.3,0.02,1.84,0.02l0.57,6.89c-0.13,0-0.64-0.01-1.53-0.02c-0.89-0.02-1.61-0.02-2.16-0.02
			c-4.89,0-9.36,0.42-13.41,1.25c-4.06,0.83-7.6,2.04-10.64,3.64c-4.12,2.17-7.35,5.13-9.7,8.86c-2.35,3.74-3.52,7.71-3.52,11.93
			c0,5.33,1.22,9.75,3.67,13.24c2.44,3.5,5.6,6.23,9.46,8.21c3.45,1.76,7.1,2.99,10.95,3.71c3.85,0.72,7.82,1.08,11.91,1.08
			c0-0.51-0.02-3-0.05-7.45c-0.03-4.46-0.1-10.99-0.19-19.58H363.42z"/>
		<path class="st0" d="M428.75,65.84h-7.9c0.03-1.91,0.08-5.33,0.14-10.24c0.06-4.91,0.1-11.96,0.1-21.15
			c0-3.64-0.02-8.41-0.05-14.31c-0.03-5.9-0.1-12.03-0.19-18.38h7.9c-0.06,4.56-0.12,9.87-0.17,15.91
			c-0.05,6.05-0.07,10.98-0.07,14.81c0,9.7,0.03,17.2,0.1,22.51C428.67,60.32,428.72,63.93,428.75,65.84z"/>
		<path class="st0" d="M543.51,1.77c-0.06,5.01-0.12,10.74-0.17,17.18c-0.05,6.44-0.07,11.09-0.07,13.92c0,9.06,0.03,16.26,0.1,21.6
			c0.06,5.34,0.1,8.19,0.1,8.54l-6.36,3.11c-9.63-13.01-18.64-24.76-27.01-35.24c-8.37-10.48-13.21-16.53-14.52-18.16l-0.1,0.05
			c0,8.55,0.06,19.05,0.17,31.5c0.11,12.46,0.18,19.64,0.22,21.55h-7.46c0.03-0.8,0.08-3.64,0.14-8.52
			c0.06-4.88,0.1-11.68,0.1-20.38c0-3.48-0.02-8.09-0.05-13.85c-0.03-5.76-0.1-11.86-0.19-18.3l7.27-3.45
			c0.57,0.73,5.46,6.93,14.67,18.6c9.2,11.67,17.87,22.51,26.01,32.52l0.1-0.05c0-4.91-0.06-13.17-0.19-24.79
			c-0.13-11.62-0.19-20.24-0.19-25.85H543.51z"/>
		<path class="st0" d="M650.42,32.92c-0.06,2.3-0.13,4.98-0.19,8.06c-0.06,3.08-0.1,5.62-0.1,7.63c0,3.22,0.03,6.82,0.1,10.79
			c0.06,3.97,0.1,6.18,0.1,6.63c-0.29,0.03-1.24,0.1-2.87,0.22c-1.63,0.11-3.21,0.17-4.74,0.17c-7.59,0-14.3-0.81-20.12-2.44
			c-5.82-1.63-10.87-4.47-15.15-8.52c-2.65-2.49-4.78-5.57-6.39-9.26c-1.61-3.68-2.42-7.89-2.42-12.61c0-5.81,1.54-11,4.62-15.58
			c3.08-4.58,7.31-8.27,12.7-11.08c3.67-1.91,7.84-3.36,12.51-4.33c4.67-0.97,9.55-1.46,14.62-1.46c0.8,0,1.54,0.01,2.22,0.02
			c0.69,0.02,1.3,0.02,1.84,0.02l0.57,6.89c-0.13,0-0.64-0.01-1.53-0.02c-0.89-0.02-1.61-0.02-2.16-0.02
			c-4.89,0-9.36,0.42-13.41,1.25c-4.06,0.83-7.6,2.04-10.63,3.64c-4.12,2.17-7.35,5.13-9.7,8.86c-2.35,3.74-3.52,7.71-3.52,11.93
			c0,5.33,1.22,9.75,3.67,13.24c2.44,3.5,5.6,6.23,9.46,8.21c3.45,1.76,7.1,2.99,10.95,3.71c3.85,0.72,7.82,1.08,11.91,1.08
			c0-0.51-0.02-3-0.05-7.45c-0.03-4.46-0.1-10.99-0.19-19.58H650.42z"/>
		<path class="st0" d="M856.92,3.21c-5.39,14.13-10.41,28-15.05,41.61c-4.64,13.61-7.08,20.71-7.3,21.32h-6.65
			c-0.16-0.61-1.87-5.69-5.14-15.24c-3.27-9.55-7.58-21.44-12.94-35.67h-0.1c-4.69,11.77-9,23.02-12.94,33.76
			c-3.94,10.74-6.04,16.45-6.29,17.15h-6.79c-0.26-0.92-2.3-7.19-6.15-18.78c-3.84-11.6-8.97-26.1-15.38-43.52l7.85-3.06
			c0.13,0.45,1.99,6.06,5.59,16.85c3.6,10.79,7.73,22.9,12.38,36.34l0.1-0.01c4.92-12.38,9.2-23.73,12.85-34.03
			c3.65-10.31,5.56-15.7,5.72-16.18h7.42c0.13,0.54,2.07,6.38,5.82,17.52c3.75,11.14,7.56,22.04,11.42,32.7l0.07-0.06
			c5.11-13.93,9.43-26.14,12.95-36.63c3.52-10.49,5.34-15.99,5.47-16.5L856.92,3.21z"/>
		<path class="st0" d="M949.86,65.75c-0.29,0-2.41-0.02-6.36-0.05c-3.96-0.03-8.85-0.05-14.69-0.05c-4.05,0-7.76,0.02-11.12,0.05
			c-3.37,0.03-6.21,0.05-8.54,0.05c0.06-1.85,0.12-5.85,0.17-12.01c0.05-6.16,0.07-12.52,0.07-19.09c0-3.6-0.02-8.37-0.05-14.31
			c-0.03-5.93-0.1-12.07-0.19-18.42c2.26,0,5.1,0.02,8.49,0.05c3.4,0.03,6.9,0.05,10.5,0.05c6.09,0,11.05-0.02,14.88-0.05
			c3.83-0.03,5.9-0.05,6.22-0.05v6.65c-0.32,0-2.32-0.02-6-0.07c-3.69-0.05-8.27-0.07-13.76-0.07c-2.39,0-4.74,0.01-7.03,0.02
			c-2.3,0.02-4.12,0.02-5.46,0.02c0,3.61-0.03,7.2-0.1,10.79c-0.06,3.59-0.1,6.98-0.1,10.17c1.44,0,3.13,0.01,5.1,0.02
			c1.96,0.02,3.71,0.02,5.24,0.02c5.61,0,10.63-0.02,15.05-0.07c4.42-0.05,6.77-0.07,7.06-0.07v6.6c-0.26,0-2.89-0.02-7.9-0.07
			c-5.01-0.05-9.59-0.07-13.73-0.07c-1.53,0-3.36,0.01-5.48,0.02c-2.12,0.02-3.9,0.02-5.33,0.02c0,6.03,0.02,10.81,0.05,14.36
			c0.03,3.54,0.06,6.51,0.1,8.9c1.88,0.03,4.16,0.06,6.84,0.07c2.68,0.02,5.57,0.02,8.66,0.02c4.75,0,8.75-0.02,11.99-0.05
			c3.24-0.03,5.05-0.05,5.43-0.05V65.75z"/>
		<path class="st0" d="M1059.17,34.17c0,5.62-1.38,10.54-4.14,14.79c-2.76,4.24-6.33,7.66-10.73,10.24
			c-3.83,2.27-8.09,3.99-12.79,5.17c-4.7,1.18-9.98,1.77-15.85,1.77c-2.23,0-4.41-0.03-6.55-0.1c-2.14-0.06-3.32-0.1-3.54-0.1
			c0-0.16,0.04-3.84,0.12-11.03c0.08-7.19,0.12-14.01,0.12-20.46c0-3.41-0.01-7.8-0.02-13.16c-0.02-5.36-0.09-11.87-0.22-19.52
			c0.32,0,1.78-0.02,4.37-0.05c2.6-0.03,3.99-0.05,4.18-0.05c6.6,0,12.45,0.59,17.57,1.77c5.12,1.18,9.68,3.05,13.7,5.6
			c4.65,2.97,8.11,6.53,10.38,10.69S1059.17,28.71,1059.17,34.17z M1051.03,34.12c0-4.15-0.89-7.91-2.68-11.29
			c-1.78-3.38-4.6-6.28-8.46-8.71c-3.6-2.26-7.59-3.84-11.97-4.74c-4.38-0.89-8.35-1.34-11.92-1.34c-0.45,0-0.94,0-1.48,0
			c-0.54,0-0.88,0-1,0c-0.06,5.04-0.1,9.22-0.12,12.54c-0.02,3.32-0.02,5.97-0.02,7.94c0,1.4,0.01,4.68,0.02,9.83
			c0.02,5.15,0.04,12.29,0.07,21.41c0.45,0,0.85,0,1.22,0s0.77,0,1.22,0c4.14,0,8.3-0.49,12.47-1.46c4.17-0.97,7.69-2.32,10.56-4.04
			c3.63-2.17,6.55-4.92,8.77-8.25C1049.92,42.68,1051.03,38.71,1051.03,34.12z"/>
		<path class="st0" d="M1168.04,34.17c0,5.62-1.38,10.54-4.14,14.79c-2.76,4.24-6.33,7.66-10.73,10.24
			c-3.83,2.27-8.09,3.99-12.79,5.17c-4.7,1.18-9.98,1.77-15.85,1.77c-2.23,0-4.41-0.03-6.55-0.1c-2.14-0.06-3.32-0.1-3.54-0.1
			c0-0.16,0.04-3.84,0.12-11.03c0.08-7.19,0.12-14.01,0.12-20.46c0-3.41-0.01-7.8-0.02-13.16c-0.02-5.36-0.09-11.87-0.22-19.52
			c0.32,0,1.78-0.02,4.37-0.05c2.6-0.03,3.99-0.05,4.18-0.05c6.6,0,12.45,0.59,17.57,1.77c5.12,1.18,9.68,3.05,13.7,5.6
			c4.65,2.97,8.11,6.53,10.38,10.69S1168.04,28.71,1168.04,34.17z M1159.9,34.12c0-4.15-0.89-7.91-2.68-11.29
			c-1.78-3.38-4.6-6.28-8.46-8.71c-3.6-2.26-7.59-3.84-11.97-4.74c-4.38-0.89-8.35-1.34-11.92-1.34c-0.45,0-0.94,0-1.48,0
			c-0.54,0-0.88,0-1,0c-0.06,5.04-0.1,9.22-0.12,12.54c-0.02,3.32-0.02,5.97-0.02,7.94c0,1.4,0.01,4.68,0.02,9.83
			c0.02,5.15,0.04,12.29,0.07,21.41c0.45,0,0.85,0,1.22,0s0.77,0,1.22,0c4.14,0,8.3-0.49,12.47-1.46c4.17-0.97,7.69-2.32,10.56-4.04
			c3.63-2.17,6.55-4.92,8.77-8.25C1158.8,42.68,1159.9,38.71,1159.9,34.12z"/>
		<path class="st0" d="M1231.31,65.84h-7.9c0.03-1.91,0.08-5.33,0.14-10.24c0.06-4.91,0.1-11.96,0.1-21.15
			c0-3.64-0.02-8.41-0.05-14.31c-0.03-5.9-0.1-12.03-0.19-18.38h7.9c-0.06,4.56-0.12,9.87-0.17,15.91
			c-0.05,6.05-0.07,10.98-0.07,14.81c0,9.7,0.03,17.2,0.1,22.51C1231.23,60.32,1231.28,63.93,1231.31,65.84z"/>
		<path class="st0" d="M1346.07,1.77c-0.06,5.01-0.12,10.74-0.17,17.18c-0.05,6.44-0.07,11.09-0.07,13.92
			c0,9.06,0.03,16.26,0.1,21.6c0.06,5.34,0.1,8.19,0.1,8.54l-6.36,3.11c-9.63-13.01-18.64-24.76-27.01-35.24
			c-8.37-10.48-13.21-16.53-14.52-18.16l-0.1,0.05c0,8.55,0.06,19.05,0.17,31.5c0.11,12.46,0.18,19.64,0.22,21.55h-7.46
			c0.03-0.8,0.08-3.64,0.14-8.52c0.06-4.88,0.1-11.68,0.1-20.38c0-3.48-0.02-8.09-0.05-13.85c-0.03-5.76-0.1-11.86-0.19-18.3
			l7.27-3.45c0.57,0.73,5.46,6.93,14.67,18.6c9.2,11.67,17.87,22.51,26.01,32.52l0.1-0.05c0-4.91-0.06-13.17-0.19-24.79
			c-0.13-11.62-0.19-20.24-0.19-25.85H1346.07z"/>
		<path class="st0" d="M1452.98,32.92c-0.06,2.3-0.13,4.98-0.19,8.06c-0.06,3.08-0.1,5.62-0.1,7.63c0,3.22,0.03,6.82,0.1,10.79
			c0.06,3.97,0.1,6.18,0.1,6.63c-0.29,0.03-1.24,0.1-2.87,0.22c-1.63,0.11-3.21,0.17-4.74,0.17c-7.59,0-14.3-0.81-20.12-2.44
			c-5.82-1.63-10.87-4.47-15.15-8.52c-2.65-2.49-4.78-5.57-6.39-9.26c-1.61-3.68-2.42-7.89-2.42-12.61c0-5.81,1.54-11,4.62-15.58
			c3.08-4.58,7.31-8.27,12.7-11.08c3.67-1.91,7.84-3.36,12.51-4.33c4.67-0.97,9.55-1.46,14.62-1.46c0.8,0,1.54,0.01,2.22,0.02
			c0.69,0.02,1.3,0.02,1.84,0.02l0.57,6.89c-0.13,0-0.64-0.01-1.53-0.02c-0.89-0.02-1.61-0.02-2.16-0.02
			c-4.89,0-9.36,0.42-13.41,1.25c-4.06,0.83-7.6,2.04-10.63,3.64c-4.12,2.17-7.35,5.13-9.7,8.86c-2.35,3.74-3.52,7.71-3.52,11.93
			c0,5.33,1.22,9.75,3.67,13.24c2.44,3.5,5.6,6.23,9.46,8.21c3.45,1.76,7.1,2.99,10.95,3.71c3.85,0.72,7.82,1.08,11.91,1.08
			c0-0.51-0.02-3-0.05-7.45c-0.03-4.46-0.1-10.99-0.19-19.58H1452.98z"/>
	</g>
	<g>
		<path class="st0" d="M272.49,173.75l-5.94-24.2l-6.38,24.2h-3.71l-6.53-28.8h3.56l5.05,23.75l6.23-23.75h3.71l5.94,23.75
			l5.34-23.75h3.27l-6.68,28.8H272.49z"/>
		<path class="st0" d="M310.58,168.4h3.41c0,1.58-0.69,2.97-2.08,4.16c-1.48,1.19-3.51,1.78-6.09,1.78c-2.97,0-5.34-0.99-7.12-2.97
			c-1.78-1.98-2.67-4.6-2.67-7.87c0-3.46,0.94-6.13,2.82-8.02c1.78-1.98,4.06-2.97,6.83-2.97c2.57,0,4.65,0.79,6.23,2.38
			c1.48,1.58,2.23,4.16,2.23,7.72v1.19h-14.7c0,2.47,0.64,4.36,1.93,5.64c1.19,1.39,2.77,2.08,4.75,2.08c1.48,0,2.57-0.35,3.27-1.04
			C310.18,169.89,310.58,169.2,310.58,168.4z M299.59,161.28h11.13v-0.45c0-0.99-0.2-1.88-0.59-2.67c-0.5-0.99-1.14-1.68-1.93-2.08
			c-0.79-0.49-1.73-0.74-2.82-0.74c-1.39,0-2.57,0.5-3.56,1.48C300.83,157.81,300.08,159.3,299.59,161.28z"/>
		<path class="st0" d="M370.89,156.68v-12.91h3.56v29.98h-3.56v-3.56c-0.99,1.58-1.93,2.62-2.82,3.12
			c-0.99,0.69-2.28,1.04-3.86,1.04c-2.38,0-4.4-0.99-6.09-2.97c-1.58-1.88-2.38-4.5-2.38-7.87c0-3.46,0.84-6.18,2.52-8.16
			c1.58-1.88,3.61-2.82,6.09-2.82c1.68,0,3.02,0.35,4.01,1.04C369.16,154.05,370,155.09,370.89,156.68z M370.89,163.36
			c0-2.67-0.54-4.7-1.63-6.09c-0.99-1.29-2.38-1.93-4.16-1.93c-1.68,0-3.02,0.64-4.01,1.93c-1.19,1.29-1.78,3.32-1.78,6.09
			c0,2.77,0.54,4.85,1.63,6.23c1.09,1.39,2.47,2.08,4.16,2.08c1.68,0,3.07-0.69,4.16-2.08
			C370.34,168.21,370.89,166.13,370.89,163.36z"/>
		<path class="st0" d="M403.03,168.4h3.41c0,1.58-0.69,2.97-2.08,4.16c-1.48,1.19-3.51,1.78-6.09,1.78c-2.97,0-5.34-0.99-7.12-2.97
			c-1.78-1.98-2.67-4.6-2.67-7.87c0-3.46,0.94-6.13,2.82-8.02c1.78-1.98,4.06-2.97,6.83-2.97c2.57,0,4.65,0.79,6.23,2.38
			c1.48,1.58,2.23,4.16,2.23,7.72v1.19h-14.7c0,2.47,0.64,4.36,1.93,5.64c1.19,1.39,2.77,2.08,4.75,2.08c1.48,0,2.57-0.35,3.27-1.04
			C402.64,169.89,403.03,169.2,403.03,168.4z M392.05,161.28h11.13v-0.45c0-0.99-0.2-1.88-0.59-2.67c-0.5-0.99-1.14-1.68-1.93-2.08
			c-0.79-0.49-1.73-0.74-2.82-0.74c-1.39,0-2.57,0.5-3.56,1.48C393.29,157.81,392.54,159.3,392.05,161.28z"/>
		<path class="st0" d="M419.89,168.7h3.41c0,0.89,0.35,1.54,1.04,1.93c0.79,0.59,1.88,0.89,3.27,0.89c1.29,0,2.47-0.39,3.56-1.19
			c0.89-0.79,1.34-1.53,1.34-2.23c0-0.69-0.25-1.29-0.74-1.78c-0.69-0.49-2.33-1.14-4.9-1.93c-2.57-0.79-4.3-1.68-5.2-2.67
			c-0.89-0.89-1.34-1.98-1.34-3.27c0-1.58,0.74-2.97,2.23-4.16c1.38-1.19,3.27-1.78,5.64-1.78c2.67,0,4.5,0.5,5.49,1.48
			c1.19,0.99,1.78,2.13,1.78,3.41h-3.41c0-0.59-0.25-1.04-0.74-1.34c-0.79-0.49-1.78-0.74-2.97-0.74c-1.39,0-2.47,0.3-3.27,0.89
			c-0.79,0.59-1.19,1.29-1.19,2.08c0,0.59,0.3,1.14,0.89,1.63c0.89,0.59,2.87,1.29,5.94,2.08c1.98,0.59,3.36,1.34,4.16,2.23
			c0.79,1.09,1.19,2.18,1.19,3.27c0,1.88-0.74,3.51-2.23,4.9c-1.29,1.29-3.32,1.93-6.09,1.93c-2.47,0-4.4-0.54-5.79-1.63
			C420.58,171.62,419.89,170.28,419.89,168.7z"/>
		<path class="st0" d="M450.25,144.95h3.56v3.41h-3.56V144.95z M453.82,152.96v20.78h-3.56v-20.78H453.82z"/>
		<path class="st0" d="M483.29,171.82v-2.38c-1.39,2.87-3.61,4.31-6.68,4.31c-2.38,0-4.36-0.94-5.94-2.82
			c-1.68-1.98-2.52-4.55-2.52-7.72c0-3.46,0.79-6.13,2.38-8.02c1.68-1.78,3.76-2.67,6.23-2.67c1.29,0,2.52,0.25,3.71,0.74
			c0.89,0.5,1.83,1.54,2.82,3.12v-3.41h3.56v17.07c0,4.35-0.5,7.17-1.48,8.46c-1.78,2.57-4.5,3.86-8.16,3.86
			c-2.77,0-4.9-0.59-6.38-1.78c-1.58-0.99-2.38-2.38-2.38-4.16h3.56c0,0.99,0.35,1.78,1.04,2.38c0.99,0.69,2.38,1.04,4.16,1.04
			c2.38,0,4.06-0.79,5.05-2.38C482.94,176.47,483.29,174.59,483.29,171.82z M483.29,162.76c0-2.28-0.54-4.11-1.63-5.49
			c-1.19-1.29-2.57-1.93-4.16-1.93c-1.68,0-3.02,0.64-4.01,1.93c-1.19,1.29-1.78,3.27-1.78,5.94c0,2.57,0.54,4.55,1.63,5.94
			c0.99,1.29,2.38,1.93,4.16,1.93c1.58,0,2.97-0.74,4.16-2.23C482.75,167.46,483.29,165.43,483.29,162.76z"/>
		<path class="st0" d="M505.64,163.5v10.24h-3.56v-20.78h3.56v3.71c1.58-2.77,3.81-4.16,6.68-4.16c2.18,0,3.86,0.59,5.05,1.78
			c1.19,1.29,1.78,3.37,1.78,6.23v13.21h-3.56v-11.73c0-2.77-0.35-4.5-1.04-5.2c-0.79-0.79-1.83-1.19-3.12-1.19
			c-1.68,0-3.02,0.64-4.01,1.93C506.23,158.85,505.64,160.83,505.64,163.5z"/>
		<path class="st0" d="M571.52,173.6l0.45-0.74l-8.91-19.89h3.86l6.83,15.44l6.53-15.44h3.41l-8.61,20.78
			c-1.19,2.47-2.08,4.16-2.67,5.05c-0.69,0.89-1.48,1.63-2.38,2.23c-1.29,0.49-2.62,0.74-4.01,0.74h-2.67v-2.82h2.08
			c1.48,0,2.77-0.4,3.86-1.19C569.78,177.26,570.53,175.87,571.52,173.6z"/>
		<path class="st0" d="M605.59,174.34c-2.87,0-5.2-0.99-6.98-2.97c-1.88-1.88-2.82-4.55-2.82-8.02c0-3.46,0.89-6.13,2.67-8.02
			c1.78-1.88,4.16-2.82,7.12-2.82c2.87,0,5.2,0.94,6.98,2.82c1.78,1.88,2.67,4.55,2.67,8.02c0,3.37-0.89,6.04-2.67,8.02
			C610.79,173.35,608.46,174.34,605.59,174.34z M605.59,171.52c1.68,0,3.12-0.74,4.3-2.23c1.19-1.38,1.78-3.36,1.78-5.94
			c0-2.67-0.59-4.65-1.78-5.94c-1.19-1.38-2.62-2.08-4.3-2.08c-1.78,0-3.27,0.69-4.45,2.08c-1.19,1.29-1.78,3.27-1.78,5.94
			c0,2.57,0.59,4.55,1.78,5.94C602.33,170.78,603.81,171.52,605.59,171.52z"/>
		<path class="st0" d="M642.93,163.21v-10.24h3.41v20.78h-3.41v-3.56c-1.88,2.77-4.11,4.16-6.68,4.16c-1.78,0-3.37-0.54-4.75-1.63
			c-1.48-1.09-2.23-3.27-2.23-6.53v-13.21h3.56v11.73c0,2.77,0.45,4.55,1.34,5.34c0.79,0.79,1.73,1.19,2.82,1.19
			c1.58,0,2.97-0.69,4.16-2.08C642.34,167.76,642.93,165.78,642.93,163.21z"/>
		<path class="st0" d="M665.13,163.5v10.24h-3.56v-20.78h3.56v3.71c0.69-1.19,1.63-2.23,2.82-3.12c0.99-0.69,2.13-1.04,3.41-1.04
			c0.3,0,0.94,0.1,1.93,0.3v3.56c-0.69-0.39-1.58-0.59-2.67-0.59c-1.48,0-2.77,0.59-3.86,1.78
			C665.68,158.95,665.13,160.93,665.13,163.5z"/>
		<path class="st0" d="M717.73,163.5v10.24h-3.56v-29.98h3.56v12.91c1.58-2.77,3.81-4.16,6.68-4.16c2.18,0,3.86,0.59,5.05,1.78
			c1.19,1.29,1.78,3.37,1.78,6.23v13.21h-3.56v-11.73c0-2.77-0.35-4.5-1.04-5.2c-0.79-0.79-1.83-1.19-3.12-1.19
			c-1.68,0-3.02,0.64-4.01,1.93C718.32,158.85,717.73,160.83,717.73,163.5z"/>
		<path class="st0" d="M762.64,173.75h-3.71c-0.3-1.09-0.45-2.03-0.45-2.82c-1.88,1.48-3.02,2.33-3.41,2.52
			c-0.99,0.59-2.18,0.89-3.56,0.89c-1.78,0-3.22-0.54-4.3-1.63c-1.09-1.09-1.63-2.42-1.63-4.01c0-2.28,0.94-3.91,2.82-4.9
			c2.18-1.29,5.54-2.28,10.09-2.97v-2.38c0-1.19-0.3-1.98-0.89-2.38c-0.69-0.69-1.88-1.04-3.56-1.04c-1.39,0-2.47,0.3-3.27,0.89
			c-0.79,0.79-1.19,1.63-1.19,2.52h-3.86c0-1.48,0.79-2.87,2.38-4.16c1.58-1.29,3.61-1.93,6.09-1.93c1.78,0,3.31,0.3,4.6,0.89
			c1.19,0.5,2.03,1.19,2.52,2.08c0.39,0.69,0.59,2.08,0.59,4.16v8.16C761.9,169.74,762.14,171.77,762.64,173.75z M758.48,165.29
			v-1.93c-4.36,1.09-6.98,1.98-7.87,2.67c-0.89,0.69-1.34,1.58-1.34,2.67c0,0.99,0.35,1.68,1.04,2.08c0.59,0.59,1.38,0.89,2.38,0.89
			c1.48,0,2.82-0.59,4.01-1.78S758.48,167.17,758.48,165.29z"/>
		<path class="st0" d="M780.39,170.18v11.58h-3.56v-28.8h3.56v3.71c0.79-1.48,1.63-2.47,2.52-2.97c1.38-0.79,2.77-1.19,4.16-1.19
			c2.47,0,4.5,0.94,6.09,2.82c1.58,1.88,2.38,4.55,2.38,8.02c0,3.46-0.79,6.14-2.38,8.02c-1.68,1.98-3.76,2.97-6.23,2.97
			c-1.48,0-2.72-0.35-3.71-1.04C782.22,172.71,781.28,171.67,780.39,170.18z M780.39,163.36c0,2.67,0.54,4.7,1.63,6.09
			c1.09,1.39,2.47,2.08,4.16,2.08c1.68,0,3.07-0.69,4.16-2.08c1.09-1.38,1.63-3.36,1.63-5.94c0-2.97-0.5-5.1-1.48-6.38
			c-0.99-1.29-2.43-1.93-4.3-1.93c-1.58,0-2.92,0.69-4.01,2.08C780.98,158.56,780.39,160.59,780.39,163.36z"/>
		<path class="st0" d="M813.12,170.18v11.58h-3.56v-28.8h3.56v3.71c0.79-1.48,1.63-2.47,2.52-2.97c1.38-0.79,2.77-1.19,4.16-1.19
			c2.47,0,4.5,0.94,6.09,2.82c1.58,1.88,2.38,4.55,2.38,8.02c0,3.46-0.79,6.14-2.38,8.02c-1.68,1.98-3.76,2.97-6.23,2.97
			c-1.48,0-2.72-0.35-3.71-1.04C814.96,172.71,814.02,171.67,813.12,170.18z M813.12,163.36c0,2.67,0.54,4.7,1.63,6.09
			c1.09,1.39,2.47,2.08,4.16,2.08c1.68,0,3.07-0.69,4.16-2.08c1.09-1.38,1.63-3.36,1.63-5.94c0-2.97-0.5-5.1-1.48-6.38
			c-0.99-1.29-2.43-1.93-4.3-1.93c-1.58,0-2.92,0.69-4.01,2.08C813.72,158.56,813.12,160.59,813.12,163.36z"/>
		<path class="st0" d="M842.6,144.95h3.56v3.41h-3.56V144.95z M846.16,152.96v20.78h-3.56v-20.78H846.16z"/>
		<path class="st0" d="M864.95,163.5v10.24h-3.56v-20.78h3.56v3.71c1.58-2.77,3.81-4.16,6.68-4.16c2.18,0,3.86,0.59,5.05,1.78
			c1.19,1.29,1.78,3.37,1.78,6.23v13.21h-3.56v-11.73c0-2.77-0.35-4.5-1.04-5.2c-0.79-0.79-1.83-1.19-3.12-1.19
			c-1.68,0-3.02,0.64-4.01,1.93C865.54,158.85,864.95,160.83,864.95,163.5z"/>
		<path class="st0" d="M907.04,168.4h3.41c0,1.58-0.69,2.97-2.08,4.16c-1.48,1.19-3.51,1.78-6.09,1.78c-2.97,0-5.34-0.99-7.12-2.97
			c-1.78-1.98-2.67-4.6-2.67-7.87c0-3.46,0.94-6.13,2.82-8.02c1.78-1.98,4.06-2.97,6.83-2.97c2.57,0,4.65,0.79,6.23,2.38
			c1.48,1.58,2.23,4.16,2.23,7.72v1.19h-14.7c0,2.47,0.64,4.36,1.93,5.64c1.19,1.39,2.77,2.08,4.75,2.08c1.48,0,2.57-0.35,3.27-1.04
			C906.64,169.89,907.04,169.2,907.04,168.4z M896.05,161.28h11.13v-0.45c0-0.99-0.2-1.88-0.59-2.67c-0.5-0.99-1.14-1.68-1.93-2.08
			c-0.79-0.49-1.73-0.74-2.82-0.74c-1.39,0-2.57,0.5-3.56,1.48C897.29,157.81,896.55,159.3,896.05,161.28z"/>
		<path class="st0" d="M923.9,168.7h3.41c0,0.89,0.35,1.54,1.04,1.93c0.79,0.59,1.88,0.89,3.27,0.89c1.29,0,2.47-0.39,3.56-1.19
			c0.89-0.79,1.34-1.53,1.34-2.23c0-0.69-0.25-1.29-0.74-1.78c-0.69-0.49-2.33-1.14-4.9-1.93c-2.57-0.79-4.3-1.68-5.2-2.67
			c-0.89-0.89-1.34-1.98-1.34-3.27c0-1.58,0.74-2.97,2.23-4.16c1.38-1.19,3.27-1.78,5.64-1.78c2.67,0,4.5,0.5,5.49,1.48
			c1.19,0.99,1.78,2.13,1.78,3.41h-3.41c0-0.59-0.25-1.04-0.74-1.34c-0.79-0.49-1.78-0.74-2.97-0.74c-1.39,0-2.47,0.3-3.27,0.89
			c-0.79,0.59-1.19,1.29-1.19,2.08c0,0.59,0.3,1.14,0.89,1.63c0.89,0.59,2.87,1.29,5.94,2.08c1.98,0.59,3.36,1.34,4.16,2.23
			c0.79,1.09,1.19,2.18,1.19,3.27c0,1.88-0.74,3.51-2.23,4.9c-1.29,1.29-3.32,1.93-6.09,1.93c-2.47,0-4.4-0.54-5.79-1.63
			C924.59,171.62,923.9,170.28,923.9,168.7z"/>
		<path class="st0" d="M953.07,168.7h3.41c0,0.89,0.35,1.54,1.04,1.93c0.79,0.59,1.88,0.89,3.27,0.89c1.29,0,2.47-0.39,3.56-1.19
			c0.89-0.79,1.34-1.53,1.34-2.23c0-0.69-0.25-1.29-0.74-1.78c-0.69-0.49-2.33-1.14-4.9-1.93c-2.57-0.79-4.3-1.68-5.2-2.67
			c-0.89-0.89-1.34-1.98-1.34-3.27c0-1.58,0.74-2.97,2.23-4.16c1.38-1.19,3.27-1.78,5.64-1.78c2.67,0,4.5,0.5,5.49,1.48
			c1.19,0.99,1.78,2.13,1.78,3.41h-3.41c0-0.59-0.25-1.04-0.74-1.34c-0.79-0.49-1.78-0.74-2.97-0.74c-1.39,0-2.47,0.3-3.27,0.89
			c-0.79,0.59-1.19,1.29-1.19,2.08c0,0.59,0.3,1.14,0.89,1.63c0.89,0.59,2.87,1.29,5.94,2.08c1.98,0.59,3.36,1.34,4.16,2.23
			c0.79,1.09,1.19,2.18,1.19,3.27c0,1.88-0.74,3.51-2.23,4.9c-1.29,1.29-3.32,1.93-6.09,1.93c-2.47,0-4.4-0.54-5.79-1.63
			C953.76,171.62,953.07,170.28,953.07,168.7z"/>
		<path class="st0" d="M1027.17,173.75h-3.71c-0.3-1.09-0.45-2.03-0.45-2.82c-1.88,1.48-3.02,2.33-3.41,2.52
			c-0.99,0.59-2.18,0.89-3.56,0.89c-1.78,0-3.22-0.54-4.3-1.63c-1.09-1.09-1.63-2.42-1.63-4.01c0-2.28,0.94-3.91,2.82-4.9
			c2.18-1.29,5.54-2.28,10.09-2.97v-2.38c0-1.19-0.3-1.98-0.89-2.38c-0.69-0.69-1.88-1.04-3.56-1.04c-1.39,0-2.47,0.3-3.27,0.89
			c-0.79,0.79-1.19,1.63-1.19,2.52h-3.86c0-1.48,0.79-2.87,2.38-4.16c1.58-1.29,3.61-1.93,6.09-1.93c1.78,0,3.31,0.3,4.6,0.89
			c1.19,0.5,2.03,1.19,2.52,2.08c0.39,0.69,0.59,2.08,0.59,4.16v8.16C1026.43,169.74,1026.68,171.77,1027.17,173.75z
			 M1023.02,165.29v-1.93c-4.36,1.09-6.98,1.98-7.87,2.67c-0.89,0.69-1.34,1.58-1.34,2.67c0,0.99,0.35,1.68,1.04,2.08
			c0.59,0.59,1.38,0.89,2.38,0.89c1.48,0,2.82-0.59,4.01-1.78S1023.02,167.17,1023.02,165.29z"/>
		<path class="st0" d="M1045.22,163.5v10.24h-3.56v-20.78h3.56v3.71c1.58-2.77,3.81-4.16,6.68-4.16c2.18,0,3.86,0.59,5.05,1.78
			c1.19,1.29,1.78,3.37,1.78,6.23v13.21h-3.56v-11.73c0-2.77-0.35-4.5-1.04-5.2c-0.79-0.79-1.83-1.19-3.12-1.19
			c-1.68,0-3.02,0.64-4.01,1.93C1045.81,158.85,1045.22,160.83,1045.22,163.5z"/>
		<path class="st0" d="M1087.9,156.68v-12.91h3.56v29.98h-3.56v-3.56c-0.99,1.58-1.93,2.62-2.82,3.12
			c-0.99,0.69-2.28,1.04-3.86,1.04c-2.38,0-4.4-0.99-6.09-2.97c-1.58-1.88-2.38-4.5-2.38-7.87c0-3.46,0.84-6.18,2.52-8.16
			c1.58-1.88,3.61-2.82,6.09-2.82c1.68,0,3.02,0.35,4.01,1.04C1086.17,154.05,1087.01,155.09,1087.9,156.68z M1087.9,163.36
			c0-2.67-0.54-4.7-1.63-6.09c-0.99-1.29-2.38-1.93-4.16-1.93c-1.68,0-3.02,0.64-4.01,1.93c-1.19,1.29-1.78,3.32-1.78,6.09
			c0,2.77,0.54,4.85,1.63,6.23c1.09,1.39,2.47,2.08,4.16,2.08c1.68,0,3.07-0.69,4.16-2.08
			C1087.36,168.21,1087.9,166.13,1087.9,163.36z"/>
		<path class="st0" d="M1137.41,173.75v-20.78h3.41v20.78c0,2.87-0.59,4.9-1.78,6.09c-1.19,1.29-2.82,1.93-4.9,1.93
			c-0.2,0-1.19-0.1-2.97-0.3v-2.67c0.5,0.1,1.24,0.15,2.23,0.15c1.58,0,2.67-0.4,3.27-1.19
			C1137.17,176.96,1137.41,175.63,1137.41,173.75z M1137.41,144.95h3.41v3.27h-3.41V144.95z"/>
		<path class="st0" d="M1165.25,174.34c-2.87,0-5.2-0.99-6.98-2.97c-1.88-1.88-2.82-4.55-2.82-8.02c0-3.46,0.89-6.13,2.67-8.02
			c1.78-1.88,4.16-2.82,7.12-2.82c2.87,0,5.2,0.94,6.98,2.82c1.78,1.88,2.67,4.55,2.67,8.02c0,3.37-0.89,6.04-2.67,8.02
			C1170.45,173.35,1168.12,174.34,1165.25,174.34z M1165.25,171.52c1.68,0,3.12-0.74,4.3-2.23c1.19-1.38,1.78-3.36,1.78-5.94
			c0-2.67-0.59-4.65-1.78-5.94c-1.19-1.38-2.62-2.08-4.3-2.08c-1.78,0-3.27,0.69-4.45,2.08c-1.19,1.29-1.78,3.27-1.78,5.94
			c0,2.57,0.59,4.55,1.78,5.94C1161.99,170.78,1163.47,171.52,1165.25,171.52z"/>
		<path class="st0" d="M1195.62,173.6l0.45-0.74l-8.91-19.89h3.86l6.83,15.44l6.53-15.44h3.41l-8.61,20.78
			c-1.19,2.47-2.08,4.16-2.67,5.05c-0.69,0.89-1.48,1.63-2.38,2.23c-1.29,0.49-2.62,0.74-4.01,0.74h-2.67v-2.82h2.08
			c1.48,0,2.77-0.4,3.86-1.19C1193.89,177.26,1194.63,175.87,1195.62,173.6z"/>
		<path class="st0" d="M1221.38,173.75v-4.9h4.9v4.9H1221.38z"/>
	</g>
</g>
</svg>
