<?xml version="1.0" encoding="utf-8"?>
<!-- Generator: Adobe Illustrator 24.3.0, SVG Export Plug-In . SVG Version: 6.00 Build 0)  -->
<svg version="1.1" id="レイヤー_2" xmlns="http://www.w3.org/2000/svg" xmlns:xlink="http://www.w3.org/1999/xlink" x="0px"
	 y="0px" viewBox="0 0 1302.41 187.69" style="enable-background:new 0 0 1302.41 187.69;" xml:space="preserve">
<style type="text/css">
	.st0{fill:#363D3C;}
</style>
<path class="st0" d="M129.7,5.22c0-1-1-3,3-4s29.94-1.35,31.97-1.17s4.63,1.17,4.83,5.17s3.2,20,3.2,36s-1,27.48,0,30.24
	c1,2.76,1,1.76,3,2.76s31.43,1,34.71,0s4.29-1,5.29-3s-1-61.02,0-64.51s0-2.49,3-3.49s16-1,20,1s2,1,3,4s1,2.58,0,4.29
	s-0.25,72.96,0,77.71c0.25,4.75-0.59,21-2.29,24.5c-0.41,6-2.71,27.5-0.71,49.5c1,7,2,12,0,15s-3.43,5.55-11.21,5.27
	s-11.05,1.31-11.92,0.02c-0.87-1.29-1.87-0.29-1.87-4.29s1-87,0-89s0-1-3-2s-32-1-34,0s-2.96,0.59-3.98,3.3
	c-1.02,2.7-0.02,75.7-0.02,79.7s2,5,1,8s-1,2-3,3s-16.57-1.38-22.78,1.81c-5.43,1.38-12.78,0.74-14.5-0.53s-3.94-4.17-3.83-6.72
	C129.7,175.22,129.7,5.22,129.7,5.22z"/>
<path class="st0" d="M411.7,20.22c-1-1-2-2-2-4s-1-4.15,0-7.58s2-4.42,7-4.42s13.57-1,17.28,0s2.72,2,7.72,2s43,0,46-1s16-3,22-3
	c6,0,21.43,1,22.22,0s0.37-0.55,2.58-1.27c2.21-0.73,7.21,0.27,7.21,5.27s-2,10-4,10s-34-2-36,0s-0.64,0-2.32,4s-0.68,115-0.68,120
	s6,19,4,40c-2,6-6,4-9,4s-29.96,1.64-32.98,0.32c-3.02-1.32-4.02-3.32-5.02-5.32s1-150,0-152s-1-6-5-7s-27,0-31,0
	S411.7,20.22,411.7,20.22z"/>
<path class="st0" d="M710.7,9.22c1-2,1-6,7-6s62.07,1,69.03,0c6.97-1,10.97-2,14.97-2s5.23-2,6.62,0c1.38,2-0.38,4.34,0,5.17
	c0.38,0.83,1.69,12.23,0.54,13.53c-1.16,1.3-45.05-0.3-46.6,0c-1.55,0.3-6.55,0.3-7.55,5.3s0,49,0,53s4.62,6.9,5.31,6.45
	s7.69-2.45,11.69-2.45s15,0,18-1s12-3,15-1s4.24,3.63,4.62,8.32c0.38,4.68,0,7.41,0,7.41s-13.4-0.27-20.01,0s-20.42-1.27-23.52,0
	s-9.09,1.27-10.09,4.27s0,78-1,80s-2,3-4,4s-38,0-40,0s-2-2-2-3s1-1,2-3S710.7,9.22,710.7,9.22z"/>
<path class="st0" d="M980.7,6.22c0-3,1-5,4-5s35.11-1,36.56,0s-0.44,18.62,0,20.31c0.44,1.69,2.44,3.69,2.44,5.69s0,127.66,0,132.83
	s0,6.17,4,8.17s24.34,1,28.67,0c4.33-1,4.33-1,4.33-1s12-3,15-1s3,11,2,14s-2,3-5,4s-90.75,0-90.75,0L980.7,6.22z"/>
<path class="st0" d="M1097.7,8.22c1-2,7-6,10-6s14-1,19,2c7,1,12.72-0.16,15.36,0.92s5.64,3.08,5.64,5.08s0,142.58,0,146.29
	c0,3.71-1,6.71-2,11.71s1,9,0,11s-4,4-29,4s-19-3.84-19-3.84l-0.63-58.31L1097.7,8.22z"/>
<path class="st0" d="M394.7,94.22c-1-5-3-20-8-38s-23-59-61-55s-56,47-58,57c0,0-2,6-4,24s3,37,7,59s5,14,17,31s45,16,58,15
	s23-6,27-14s10-18,17-35S395.7,99.22,394.7,94.22z M349.7,148.22c-3,8,1,15-9,19s-25,2-33-26c-3-29-1-60-2-63s-2-12-1-19
	s-1-23,13-34c0,0,3-3,11-2s21,5,21,42c0,7,2,8,2,8S352.7,140.22,349.7,148.22z"/>
<path class="st0" d="M686.7,94.22c-1-5-3-20-8-38s-23-59-61-55s-56,47-58,57c0,0-2,6-4,24s3,37,7,59s5,14,17,31s45,16,58,15
	s23-6,27-14s10-18,17-35S687.7,99.22,686.7,94.22z M641.7,148.22c-3,8,1,15-9,19s-25,2-33-26c-3-29-1-60-2-63s-2-12-1-19
	s-1-23,13-34c0,0,3-3,11-2s21,5,21,42c0,7,2,8,2,8S644.7,140.22,641.7,148.22z"/>
<path class="st0" d="M957.7,94.22c-1-5-3-20-8-38s-23-59-61-55s-56,47-58,57c0,0-2,6-4,24s3,37,7,59s5,14,17,31s45,16,58,15
	s23-6,27-14s10-18,17-35S958.7,99.22,957.7,94.22z M912.7,148.22c-3,8,1,15-9,19s-25,2-33-26c-3-29-1-60-2-63s-2-12-1-19
	s-1-23,13-34c0,0,3-3,11-2s21,5,21,42c0,7,2,8,2,8S915.7,140.22,912.7,148.22z"/>
<path class="st0" d="M1301.7,94.22c-1-5-3-20-8-38s-23-59-61-55s-56,47-58,57c0,0-2,6-4,24s3,37,7,59s5,14,17,31s45,16,58,15
	s23-6,27-14s10-18,17-35S1302.7,99.22,1301.7,94.22z M1256.7,148.22c-3,8,1,15-9,19s-25,2-33-26c-3-29-1-60-2-63s-2-12-1-19
	s-1-23,13-34c0,0,3-3,11-2s21,5,21,42c0,7,2,8,2,8S1259.7,140.22,1256.7,148.22z"/>
<path class="st0" d="M109.7,40.22c-9-30-30.86-35.05-58.43-39.52C23.7-0.78,11.2,0.72,11.2,0.72c-2,0-10-1-11,10s2,21,2,25
	s1.5,6.5,1.5,11.5s-1,59-1,64s1,35,0,40s-2,26-1,29s2.8,2.12,3.9,2.06s7.66-0.61,10.88,0.17c3.22,0.77,10.22,2.77,13.22,1.77
	s4-2,5-3s3-43,3-48s3-4,3-4s13,1,32-5s30-24,32-29S118.7,70.22,109.7,40.22z M70.7,83.22c-4,13-7.18,14.15-14.09,17.07
	c-6.91,2.93-10.91,5.93-12.91,5.93s-2-0.57-3-2.78c-1-2.22,0-87.22,0-87.22c3,0,19,0,25,18S74.7,70.22,70.7,83.22z"/>
</svg>
